<?xml version="1.0" encoding="UTF-8" standalone="no"?>
<!-- Created with Inkscape (http://www.inkscape.org/) -->

<svg
   width="235.29097mm"
   height="235.29097mm"
   viewBox="0 0 235.29097 235.29097"
   version="1.1"
   id="svg1"
   xml:space="preserve"
   inkscape:version="1.4 (e7c3feb1, 2024-10-09)"
   sodipodi:docname="hash.svg"
   xmlns:inkscape="http://www.inkscape.org/namespaces/inkscape"
   xmlns:sodipodi="http://sodipodi.sourceforge.net/DTD/sodipodi-0.dtd"
   xmlns="http://www.w3.org/2000/svg"
   xmlns:svg="http://www.w3.org/2000/svg"><sodipodi:namedview
     id="namedview1"
     pagecolor="#ffffff"
     bordercolor="#000000"
     borderopacity="0.25"
     inkscape:showpageshadow="2"
     inkscape:pageopacity="0.0"
     inkscape:pagecheckerboard="0"
     inkscape:deskcolor="#d1d1d1"
     inkscape:document-units="mm"
     inkscape:zoom="0.43968987"
     inkscape:cx="658.41863"
     inkscape:cy="425.29977"
     inkscape:window-width="1560"
     inkscape:window-height="847"
     inkscape:window-x="47"
     inkscape:window-y="25"
     inkscape:window-maximized="0"
     inkscape:current-layer="layer1" /><defs
     id="defs1" /><g
     inkscape:label="Layer 1"
     inkscape:groupmode="layer"
     id="layer1"
     transform="translate(-45.926575,-56.69738)"><g
       id="g10"
       transform="translate(19.527257,10.36762)"><path
         id="rect1"
         style="fill:#ffffff;stroke-linecap:round;stroke-linejoin:round"
         d="m 45.851575,179.32807 a 3.0599509,3.0599509 0 0 0 -3.060795,3.05873 v 49.09778 a 3.0599509,3.0599509 0 0 0 3.060795,3.05821 h 49.095711 a 3.0599509,3.0599509 0 0 0 3.060279,-3.05821 V 182.3868 a 3.0599509,3.0599509 0 0 0 -3.060279,-3.05873 H 74.788827 l -5.17e-4,6.11901 h 17.100248 v 42.97671 H 48.910303 v -42.97671 h 16.601571 c -0.0016,-2.03969 -0.0061,-4.07929 -0.0067,-6.11901 z" /><path
         style="fill:#ffffff;stroke-linecap:round;stroke-linejoin:round"
         d="m 94.947266,179.32812 a 3.0599509,3.0599509 0 0 0 -3.058594,3.0586 v 49.09765 a 3.0599509,3.0599509 0 0 0 3.058594,3.0586 h 49.097654 a 3.0599509,3.0599509 0 0 0 3.06055,-3.0586 v -49.09765 a 3.0599509,3.0599509 0 0 0 -3.06055,-3.0586 z m 3.060546,6.11915 h 42.978518 v 42.97656 H 98.007812 Z"
         id="rect2" /><path
         style="fill:#ffffff;stroke-linecap:round;stroke-linejoin:round"
         d="m 144.04492,179.32812 a 3.0599509,3.0599509 0 0 0 -3.05859,3.0586 v 49.09765 a 3.0599509,3.0599509 0 0 0 3.05859,3.0586 h 49.09766 a 3.0599509,3.0599509 0 0 0 3.05859,-3.0586 v -49.09765 a 3.0599509,3.0599509 0 0 0 -3.05859,-3.0586 z m 3.06055,6.11915 h 42.97656 v 42.97656 h -42.97656 z"
         id="rect3" /><path
         id="rect4"
         style="fill:#ffffff;stroke-linecap:round;stroke-linejoin:round"
         d="m 193.14233,179.32807 a 3.0599509,3.0599509 0 0 0 -3.06028,3.05873 v 49.09778 a 3.0599509,3.0599509 0 0 0 3.06028,3.05821 h 49.09571 a 3.0599509,3.0599509 0 0 0 3.06079,-3.05821 V 182.3868 a 3.0599509,3.0599509 0 0 0 -3.06079,-3.05873 h -19.77296 c 6.7e-4,2.03975 0.008,4.07921 0.007,6.11901 h 16.70803 v 42.97671 h -42.97878 v -42.97671 h 16.96383 c 2.8e-4,-2.0397 -7.6e-4,-4.07929 0.001,-6.11901 z" /><path
         id="path4"
         style="fill:#ffffff;stroke-linecap:round;stroke-linejoin:round"
         d="m 168.59395,110.68937 a 3.0596349,3.0596349 0 0 0 -3.06079,3.05873 V 133.951 H 124.0127 c 3.2e-4,2.0404 0.005,4.08065 0.004,6.12107 h 44.57764 a 3.0599409,3.0599409 0 0 0 3.06028,-3.06028 V 113.7481 a 3.0596349,3.0596349 0 0 0 -3.06028,-3.05873 z M 70.144666,133.951 a 3.0599409,3.0599409 0 0 0 -3.060795,3.06079 v 65.07407 a 3.0596349,3.0596349 0 0 0 3.060795,3.05873 3.0596349,3.0596349 0 0 0 3.058211,-3.05873 v -62.01379 h 41.520983 c -5e-5,-2.04037 -0.002,-4.08069 -0.001,-6.12107 z" /><path
         id="circle4"
         style="baseline-shift:baseline;display:inline;overflow:visible;vector-effect:none;fill:#ffffff;stroke-linecap:round;enable-background:accumulate;stop-color:#000000;stop-opacity:1"
         d="m 182.65799,107.47176 a 14.064256,14.064256 0 0 1 -14.06426,14.06426 14.064256,14.064256 0 0 1 -14.06425,-14.06426 14.064256,14.064256 0 0 1 14.06425,-14.064252 14.064256,14.064256 0 0 1 14.06426,14.064252 z" /><path
         style="fill:#ffffff;stroke-linecap:round;stroke-linejoin:round"
         d="m 119.36914,110.68945 a 3.0596349,3.0596349 0 0 0 -3.06055,3.0586 v 49.30078 a 3.0599409,3.0599409 0 0 0 3.06055,3.06054 h 95.39063 v 35.97657 a 3.0596349,3.0596349 0 0 0 3.05859,3.05859 3.0596349,3.0596349 0 0 0 3.06055,-3.05859 v -39.03711 a 3.0599409,3.0599409 0 0 0 -3.06055,-3.0586 h -95.39063 v -46.24218 a 3.0596349,3.0596349 0 0 0 -3.05859,-3.0586 z"
         id="path7" /><path
         id="circle7"
         style="baseline-shift:baseline;display:inline;overflow:visible;vector-effect:none;fill:#ffffff;stroke-linecap:round;enable-background:accumulate;stop-color:#000000;stop-opacity:1"
         transform="scale(-1,1)"
         d="m -105.30456,107.47176 a 14.064256,14.064256 0 0 1 -14.06425,14.06426 14.064256,14.064256 0 0 1 -14.06426,-14.06426 14.064256,14.064256 0 0 1 14.06426,-14.064252 14.064256,14.064256 0 0 1 14.06425,14.064252 z" /></g></g></svg>
