<?xml version="1.0" encoding="UTF-8" standalone="no"?>
<!-- Created with Inkscape (http://www.inkscape.org/) -->

<svg
   width="67.014481mm"
   height="67.014481mm"
   viewBox="0 0 67.014481 67.014481"
   version="1.1"
   id="svg1"
   inkscape:version="1.4 (e7c3feb1, 2024-10-09)"
   sodipodi:docname="graph-algorithms.svg"
   xmlns:inkscape="http://www.inkscape.org/namespaces/inkscape"
   xmlns:sodipodi="http://sodipodi.sourceforge.net/DTD/sodipodi-0.dtd"
   xmlns="http://www.w3.org/2000/svg"
   xmlns:svg="http://www.w3.org/2000/svg">
  <sodipodi:namedview
     id="namedview1"
     pagecolor="#ffffff"
     bordercolor="#000000"
     borderopacity="0.25"
     inkscape:showpageshadow="2"
     inkscape:pageopacity="0.0"
     inkscape:pagecheckerboard="0"
     inkscape:deskcolor="#d1d1d1"
     inkscape:document-units="mm"
     inkscape:zoom="1.2436308"
     inkscape:cx="145.13954"
     inkscape:cy="118.20229"
     inkscape:window-width="1560"
     inkscape:window-height="847"
     inkscape:window-x="47"
     inkscape:window-y="25"
     inkscape:window-maximized="1"
     inkscape:current-layer="layer1" />
  <defs
     id="defs1" />
  <g
     inkscape:label="Layer 1"
     inkscape:groupmode="layer"
     id="layer1"
     transform="translate(-67.868479,-77.867769)">
    <circle
       style="fill:#ffffff;stroke:#ffffff;stroke-width:0.684465;stroke-linecap:round"
       id="circle3"
       cx="97.967735"
       cy="89.59491"
       r="5.5162034" />
    <path
       id="path3"
       style="stroke-linecap:round;stroke:none;fill:#ffffff"
       d="m 102.84592,94.193217 a 6.7181382,6.7181382 0 0 1 -1.30897,1.087272 l 18.88877,23.685891 a 6.7181382,6.7181382 0 0 1 1.34979,-1.03353 z m -8.752955,0.871265 -14.427027,30.684948 a 6.7181382,6.7181382 0 0 1 1.592668,0.60513 L 95.594682,95.861849 a 6.7181382,6.7181382 0 0 1 -1.501717,-0.797367 z m 4.902026,1.164786 a 6.7181382,6.7181382 0 0 1 -1.027327,0.08372 6.7181382,6.7181382 0 0 1 -0.672311,-0.04806 l 0.520382,10.154412 a 6.7181382,6.7181382 0 0 1 1.335319,-0.15141 6.7181382,6.7181382 0 0 1 0.359151,0.0103 z m 6.674529,18.316712 a 6.7181382,6.7181382 0 0 1 -0.60358,1.5906 l 13.62914,5.68958 a 6.7181382,6.7181382 0 0 1 0.69505,-1.55185 z m -12.207525,2.0035 -11.371915,10.33166 a 6.7181382,6.7181382 0 0 1 1.228349,1.17926 l 11.229288,-10.20093 a 6.7181382,6.7181382 0 0 1 -1.085722,-1.30999 z m 24.973665,7.42952 -34.019107,6.03735 a 6.7181382,6.7181382 0 0 1 0.364319,1.66192 l 33.921448,-6.01979 a 6.7181382,6.7181382 0 0 1 -0.26666,-1.67948 z" />
    <circle
       style="fill:#ffffff;stroke:#ffffff;stroke-width:0.684465;stroke-linecap:round"
       id="circle11"
       cx="99.151222"
       cy="112.98633"
       r="5.5162034" />
    <circle
       style="fill:#ffffff;stroke:#ffffff;stroke-width:0.684465;stroke-linecap:round"
       id="circle12"
       cx="125.1361"
       cy="123.73267"
       r="5.5162034" />
    <circle
       style="fill:#ffffff;stroke:#ffffff;stroke-width:0.684465;stroke-linecap:round"
       id="circle13"
       cx="78.091026"
       cy="132.27916"
       r="5.5162034" />
  </g>
</svg>
