<?xml version="1.0" encoding="UTF-8" standalone="no"?>
<!-- Created with Inkscape (http://www.inkscape.org/) -->

<svg
   width="79.559746mm"
   height="74.74807mm"
   viewBox="0 0 79.559746 74.74807"
   version="1.1"
   id="svg5"
   xml:space="preserve"
   inkscape:version="1.2.1 (9c6d41e4, 2022-07-14)"
   sodipodi:docname="hyperbolic.svg"
   xmlns:inkscape="http://www.inkscape.org/namespaces/inkscape"
   xmlns:sodipodi="http://sodipodi.sourceforge.net/DTD/sodipodi-0.dtd"
   xmlns="http://www.w3.org/2000/svg"
   xmlns:svg="http://www.w3.org/2000/svg"><sodipodi:namedview
     id="namedview7"
     pagecolor="#ffffff"
     bordercolor="#000000"
     borderopacity="0.25"
     inkscape:showpageshadow="2"
     inkscape:pageopacity="0.0"
     inkscape:pagecheckerboard="0"
     inkscape:deskcolor="#d1d1d1"
     inkscape:document-units="mm"
     showgrid="false"
     inkscape:zoom="1.1074137"
     inkscape:cx="24.381132"
     inkscape:cy="260.51691"
     inkscape:window-width="1390"
     inkscape:window-height="1035"
     inkscape:window-x="38"
     inkscape:window-y="23"
     inkscape:window-maximized="0"
     inkscape:current-layer="layer1" /><defs
     id="defs2" /><g
     inkscape:label="Layer 1"
     inkscape:groupmode="layer"
     id="layer1"
     transform="translate(-197.23442,-164.55328)"><path
       id="path187"
       style="fill:none;fill-opacity:0.507463;stroke:#ffffff;stroke-width:1.062;stroke-dasharray:none"
       d="m 98.925781,164.94727 c 0.136041,1.43038 0.912532,-0.3656 0,0 z m 11.687499,0.40429 c -0.10223,0.15338 0.4695,-0.0907 0,0 z m 2.41016,0 c -0.10223,0.15338 0.4695,-0.0907 0,0 z m -9.3711,1.26758 c 0.14564,0.29619 0.60558,-0.25152 0,0 z m -0.84961,0.11719 c 0.28999,0.36882 0.52087,-0.27953 0,0 z m 2.45899,-0.0586 c 0.0367,-0.03 -0.11488,-0.006 0,0 z m -3.21484,0.13672 c -0.0491,0.25358 0.35362,-0.14235 0,0 z m -0.7793,0.0742 c 0.14109,0.23806 0.42428,-0.18736 0,0 z m -0.67383,0.0684 c 0.43426,0.10223 0.0307,-0.0115 0,0 z m -0.5332,0.0215 c -0.349116,0.19224 0.47135,0.0112 0,0 z m 14.52343,6.85937 c -0.0756,2.21154 -0.23937,4.44791 -0.20312,6.64649 0.36247,0.27187 0.52302,0.72148 0.85937,1.00585 5.93276,-0.18281 11.90669,-0.69792 17.74404,-1.95579 3.03648,-0.70154 6.17291,-1.55048 8.76555,-3.27035 0.78635,-0.51252 1.71856,-1.60832 0.9494,-2.52386 -1.41846,-1.63777 -3.56263,-2.37593 -5.54463,-3.09213 -5.98491,-1.84937 -12.36883,-2.57891 -18.66631,-2.94498 -1.15617,-0.0508 -2.39795,-0.10938 -3.58789,-0.13281 -0.10547,2.0892 -0.21094,4.17839 -0.31641,6.26758 z m -17.160152,-4.45117 c 0.486352,0.0899 -0.0173,-0.71386 0,0 z m 36.015622,16.23047 c -0.49472,0.48837 -0.79539,0.89671 -1.3164,1.40039 0.28286,0.19826 0.91154,-0.17841 0.73242,-0.64453 -0.0694,-0.14233 0.93262,-0.0248 0.62791,-0.54167 0.0636,-0.0334 0.11137,-0.41797 -0.0439,-0.21419 z m -42.921872,0.83593 c -0.32808,0.4227 0.534115,1.13276 0.627088,0.39689 0.101878,-0.27378 -0.392377,-0.56798 -0.627088,-0.39689 z m 0.580078,0.85157 c 0.205691,0.41618 0.349766,0.33864 0,0 z m 0.414063,0.24804 c -0.03236,0.31147 0.702789,-0.18755 0,0 z m 0.326172,-0.008 c -0.160504,0.57787 -0.507375,0.0119 -0.298829,0.56641 0.544557,0.27017 0.292483,0.1504 0.556641,-0.11524 0.09287,0.0862 0.129654,-0.36352 -0.257812,-0.45117 z m 48.136719,0.64063 c 0.49361,0.0682 0.8862,-1.17519 0.14747,-0.14972 -0.0492,0.0499 -0.0983,0.0998 -0.14747,0.14972 z m 1.45312,-0.55078 c 0.12895,0.35588 0.4807,-0.26974 0,0 z m -9.67968,0.0703 c -0.45265,1.10168 0.54712,-0.41662 0,0 z M 92.083984,188.201 c 0.541246,0.85921 0.548512,-0.23115 0,0 z m 0.212891,0.51367 c 0.137005,0.0985 -0.121904,-0.26254 0,0 z m 0.06836,0.0937 c 0.167844,0.26566 0.19264,0.0386 0,0 z m 0.423828,0.47852 c 0.223135,0.2281 0.01949,-0.21058 0,0 z m -0.05273,-0.0293 c 0.0717,0.0571 -0.06342,-0.10526 0,0 z m 49.609377,1.68555 c 0.0487,0.62188 0.016,0.81811 0.64018,0.5254 0.16551,-0.29966 0.18231,-1.00097 -0.40549,-0.60139 -0.0782,0.0253 -0.15646,0.0507 -0.23469,0.076 z m -1.20117,0.14648 c 0.26035,-0.11847 -0.2957,-0.29508 0,0 z m 0.89649,0.68946 c -0.0898,0.25496 0.36042,-0.13097 0,0 z m -16.9375,7.68164 c -0.007,0.39741 0.16331,0.1774 0,0 z m -25.373056,0.45117 c 0.284496,3.30479 -1.033801,6.51105 -2.868271,9.19381 -3.254748,5.01903 -7.70386,9.07905 -11.743014,13.43881 -1.508839,1.62581 -2.243722,4.1034 -1.293139,6.19484 1.233069,2.88645 4.043498,4.65042 6.712646,6.05598 3.426838,1.71552 7.205634,2.72362 10.938734,3.40373 2.30472,0.40364 4.65895,0.65457 7.01867,0.80072 7.7e-4,-2.00521 0.20477,-4.01531 0.25391,-6.02539 0.10629,-2.54353 0.25706,-5.08378 0.59412,-7.60799 0.36535,-3.62086 0.2935,-7.40576 -0.14295,-11.06779 -0.0464,-0.60353 -0.31812,-1.18111 -0.36791,-1.80161 -0.67495,-2.84807 -1.69045,-5.83092 -3.93197,-7.83497 -0.76402,-0.48285 -1.57111,-1.04006 -1.81926,-1.96694 -1.08565,-1.11232 -2.19067,-2.04843 -3.375004,-3.03125 0.0078,0.0827 0.01563,0.16537 0.02344,0.24805 z m 25.322266,0.33594 c 0.0595,0.31042 0.0314,-0.19197 0,0 z m 0.0117,1.16211 c 0.0397,0.45972 0.0783,-0.25373 0,0 z m 0.0312,0.66015 c 0.10736,0.41048 0.0463,-0.24427 0,0 z m 25.57813,9.57031 c -0.35335,0.30782 -0.96727,0.97656 -0.13726,0.61047 0.30642,0.12999 0.25858,-0.84012 0.13726,-0.61047 z m -19.40625,1.55665 c 0.62618,0.74623 0.16682,-0.36948 0,0 z m 0.45703,0.38085 c -0.073,0.54289 0.69484,0.21179 0,0 z m -59.435553,0.4668 c 0.02503,0.66753 0.07385,-0.43858 0,0 z m 59.835943,0.12696 c 0.5112,0.57647 0.2865,-0.17791 0,0 z m 0.4375,0.79882 c 1.08992,0.71548 0.0955,-0.58796 -0.0166,-0.13547 l 0.0122,0.0993 z m 0.43164,0.35157 c -0.31155,0.42685 0.7938,1.17459 0.82422,0.34375 -0.24684,-0.41796 -0.33398,-0.51942 -0.82422,-0.34375 z m 8.36914,10.47656 c 0.13921,0.30537 -0.0448,-0.42213 0,0 z m -24.23242,14.05273 c 0.3057,0.27591 0.43825,-0.27873 0,0 z m -0.78125,0.002 c 0.10021,0.38858 0.59877,-0.23495 0,0 z" /><path
       id="path185"
       style="fill:none;fill-opacity:0.772388;stroke:#ffffff;stroke-width:1.062;stroke-dasharray:none"
       d="m 109.16211,167.5957 c -3.98942,0.0941 -7.9419,0.33433 -11.908204,0.85157 0.735808,1.63812 1.395998,3.37953 2.759914,4.61667 0.57959,0.52128 1.14927,1.05695 1.72837,1.57278 0.47547,0.33924 0.87446,0.80938 1.3455,1.12069 0.41006,0.57402 1.22444,0.72884 1.55098,1.40665 0.57268,0.62837 1.36078,1.08306 1.89258,1.69532 0.67776,0.30267 0.95255,1.06819 1.62815,1.36036 0.43237,0.40182 0.92657,0.72222 1.31716,1.14549 0.33684,0.34723 1.04606,0.0364 1.51316,0.15336 0.4396,-0.0398 1.27042,0.11264 1.45248,-0.0865 -0.24534,-0.37045 -0.38841,-0.78779 -0.20197,-1.19971 0.01,-2.71088 0.20194,-5.42624 0.3093,-8.13767 0.0759,-1.50619 0.15188,-3.01238 0.22781,-4.51858 -1.20519,-0.008 -2.41014,0.006 -3.61523,0.0195 z m -28.212891,4.41211 c -0.452646,1.10169 0.547125,-0.41661 0,0 z m -0.839844,4.17578 c 0.978776,0.84262 0.213654,-0.4523 -1.51e-4,-0.0168 z m 62.275395,1.0586 c 0.62788,0.28738 0.87739,-0.71507 0.12345,-0.0639 l -0.0888,0.046 z m -35.85547,3.11914 c -0.0104,0.30379 0.24806,-0.2806 0,0 z m -17.949222,2.4414 c 3.427569,3.52789 6.857558,7.16014 9.292734,11.46626 0.566248,0.93179 0.781599,2.0841 1.794402,2.65745 1.939716,1.53844 3.920956,3.09173 5.510516,4.99544 0.11407,0.63385 0.85793,0.79024 1.25391,1.26562 2.59755,2.37568 3.77946,5.86679 4.5625,9.17773 0.56499,0.62121 0.15377,1.52066 0.37847,2.26289 0.53794,4.63057 0.37275,9.29201 -0.24093,13.89644 -0.25467,3.49533 -0.34997,7.00271 -0.54184,10.50278 4.56707,0.0654 9.00619,-0.24414 13.49097,-1.18817 1.48734,-0.31069 2.95924,-0.69587 4.40747,-1.15558 -3.39714,-7.33198 -6.75028,-14.68335 -10.01758,-22.07421 -0.88948,-0.14192 -1.91289,-0.0559 -2.68395,-0.53787 -0.84843,-1.27178 -1.04254,-2.83545 -1.67777,-4.2093 -0.58215,-1.51156 -1.17254,-2.92711 -1.94882,-4.32901 -0.78194,-0.44975 -1.09342,-1.39818 -1.5625,-2.12695 -0.28094,-0.367 -0.11511,-1.07378 -0.6875,-1.15234 -0.7594,-0.5076 -1.10054,-1.44456 -1.77746,-2.05826 -0.5435,-0.56356 -1.02554,-1.21809 -1.24416,-1.96366 -4.94651,-5.60833 -10.365529,-10.74112 -15.602961,-16.07487 -0.668251,-0.72669 -1.775263,-0.59461 -2.651629,-0.93038 -0.762428,-0.19696 -1.519164,-0.41962 -2.268716,-0.66229 0.738282,0.7461 1.476563,1.49219 2.214844,2.23828 z m 43.335942,-2.12695 c -0.23328,0.33617 0.76315,-0.0198 0,0 z m -1.91797,0.51563 c 0.59492,-0.0661 -0.34017,0.18301 -0.13282,0.40429 0.48025,0.55144 1.32002,-0.36396 0.48797,-0.58013 -0.16277,-0.0604 -0.24246,0.0944 -0.35515,0.17584 z m -5.91993,0.78906 c 0.16046,0.21495 0.35717,-0.19226 0,0 z m -1.32226,0.0918 c 0.1656,0.26432 0.36851,-0.20156 0,0 z m -0.64844,-0.008 c -0.062,0.40017 0.61549,-0.10619 0.0981,-0.0126 z m 1.44727,0.0274 c 0.0299,0.0278 0.0722,-0.0306 0,0 z m -2.26563,0.11328 c 0.37063,0.24175 0.3905,-0.22433 0,0 z m -1.84765,0.082 c 0.10549,0.19869 0.33459,-0.12737 0,0 z M 118.56445,182.5 c 0.59929,-0.007 -0.37931,-0.16521 0,0 z m 15.30664,2.61719 c -0.24757,0.18016 -1.01403,1.00323 -0.23621,0.64006 0.4396,0.0877 0.37465,-0.73573 0.23621,-0.64006 z m -1.2207,1.60937 c -0.55979,0.36851 -0.0576,0.81904 0,0 z m -0.97461,1.08008 c 0.0649,0.0661 0.0725,-0.13225 0,0 z m -0.20508,0.26563 c 0.30829,0.23354 -0.15894,0.062 0.15235,0.15039 0.14029,-0.19096 -0.0546,-0.50467 -0.15235,-0.15039 z m -0.1582,0.16601 c 0.12756,0.11225 0.12095,-0.1898 0,0 z m -0.14844,0.14649 c 0.13668,0.29818 0.21614,0.0944 -0.0605,0.22461 0.26983,0.3691 0.43645,-0.62802 0.0605,-0.22461 z m -0.26953,0.29296 c 0.12836,0.15279 0.23751,-0.26784 0,0 z m -0.10937,0.20704 c 0.075,0.62122 0.44594,-0.61965 0,0 z m 9.35156,0.46093 c 0.0235,0.41806 0.0951,-0.39333 0,0 z m -15.17774,12.26563 c 0.0718,0.55948 0.25499,-0.28207 0.007,-0.0223 z m 26.66993,10 c 0.15116,0.32311 0.4575,-0.24155 0,0 z m -19.8711,2.39648 c 0.23439,0.44676 0.32682,0.29413 0,0 z m 0.58203,0.50586 c 0.22559,0.72416 0.46957,0.23598 0,0 z m 0.75586,0.65821 c 0.0877,0.64122 0.78626,0.23849 0,0 z m 6.14453,6.39257 c 0.33851,0.95018 0.71661,0.0469 0,0 z m 2.10547,5.70703 c 0.0921,0.40188 0.0784,-0.16309 0,0 z m -1.94336,3.98047 c -0.59053,0.72914 0.23162,0.50603 0,0 z m -2.01757,1.28516 c -0.16416,0.61681 0.86891,0.52798 0.74486,-0.0221 0.25194,-0.60673 -0.44748,-0.27879 -0.74486,0.0221 z" /><path
       id="path181"
       style="fill:none;stroke:#ffffff;stroke-width:1.062;stroke-dasharray:none"
       d="m 112.38281,166.8418 c 0.0486,0.28364 0.0351,0.0256 0,0 z m -0.008,1.03515 c 0.1336,0.37135 -0.0163,-0.40036 0,0 z m -17.570312,0.93946 c -4.308423,0.76804 -8.679936,1.52634 -12.443829,3.83581 -0.750789,0.49979 -1.823812,1.33591 -1.401875,2.35364 1.022904,1.75156 3.091076,2.41959 4.870443,3.13012 2.010189,0.7329 4.051084,1.25927 6.125651,1.69605 5.631116,5.73892 11.484882,11.26797 16.796082,17.311 0.31183,0.42136 0.79219,0.80248 0.96599,1.27505 -0.14603,0.95954 1.36028,0.80131 1.36683,1.72645 -0.0679,0.4373 0.56121,0.41013 0.71875,0.7793 0.35683,0.31748 0.39554,0.93473 0.6875,1.20312 0.61589,0.19421 0.68188,1.03989 1.07497,1.50422 1.51872,2.77143 2.69241,5.71736 3.67699,8.71649 0.73818,0.0588 1.46877,0.18222 2.20703,0.24023 0.89121,0.23549 0.91489,1.34996 1.34026,2.01976 3.15136,7.15286 6.41445,14.25596 9.68904,21.35329 3.56311,-1.3535 7.2072,-3.2972 9.21875,-6.67188 1.05238,-1.88409 0.80591,-4.30318 -0.46955,-6.01822 -1.27427,-1.74735 -2.99645,-3.09912 -4.41551,-4.72308 -3.71562,-3.9055 -7.52328,-7.92427 -9.78045,-12.88834 -1.47598,-3.2637 -1.30284,-7.1667 0.34504,-10.33329 2.22042,-4.4415 5.63702,-8.12804 9.00992,-11.7148 0.99377,-1.02629 1.99636,-2.04387 3.01172,-3.04883 -5.5341,1.7342 -11.33578,2.40448 -17.09955,2.82997 -3.8442,0.23804 -7.71466,0.37068 -11.55866,0.13097 -0.3867,-0.10648 -0.57869,-0.58838 -1.02929,-0.49414 -0.14652,-0.47645 -0.45012,-0.85044 -0.94922,-0.95118 -0.41043,-0.29684 -0.59013,-0.75644 -1.06836,-0.9707 -0.68167,-0.92117 -1.69432,-1.51779 -2.46484,-2.36914 -0.84901,-0.57189 -1.53402,-1.37255 -2.3711,-1.93457 -0.49969,-0.67484 -1.288757,-1.0773 -1.833019,-1.72539 -0.849331,-0.73684 -1.567071,-1.62454 -2.175324,-2.56959 -0.691614,-1.20639 -1.174852,-2.50175 -1.774858,-3.74701 -0.08984,0.0182 -0.179688,0.0365 -0.269531,0.0547 z" /><g
       id="g2194"
       transform="matrix(0.88588498,0,0,0.88588498,27.04689,23.042939)"><path
         id="path187-5"
         style="fill:#ffffff;fill-opacity:0.507463;stroke-width:0.061799"
         d="m 235.65942,164.55345 c -0.0215,-8.3e-4 -0.0458,0.004 -0.0683,0.0121 v -4.7e-4 c -0.0493,0.0197 -0.0351,0.0346 0.0369,0.0373 0.0651,0.003 0.10182,-0.0122 0.0813,-0.0327 -0.0103,-0.0101 -0.0285,-0.0156 -0.05,-0.0164 z m 2.4101,0 c -0.0215,-8.3e-4 -0.0459,0.004 -0.0682,0.0121 v -4.7e-4 c -0.0493,0.0197 -0.0346,0.0346 0.0373,0.0373 0.0651,0.003 0.10134,-0.0122 0.0808,-0.0327 -0.0103,-0.0101 -0.0285,-0.0156 -0.05,-0.0164 z m -2.65255,1.11185 c -0.16242,0 -0.32481,0.003 -0.44802,0.009 -0.24642,0.0118 -0.0448,0.0215 0.44802,0.0215 0.49288,0 0.6949,-0.01 0.44847,-0.0215 -0.12321,-0.006 -0.28606,-0.009 -0.44847,-0.009 z m 2.1639,0.009 c -0.11896,0.0145 0.11454,0.031 0.51901,0.0364 l 0.73532,0.01 -0.0407,0.72598 c -0.19409,3.45811 -0.50166,10.15624 -0.5634,12.27239 -0.0252,0.86535 -0.0141,1.07171 0.0663,1.22724 0.058,0.11217 0.0677,0.16914 0.0239,0.14202 -0.0556,-0.0343 -0.0569,-0.0143 -0.005,0.0832 0.0378,0.0706 0.10374,0.15058 0.14622,0.17752 0.0425,0.0269 0.10474,0.13018 0.13828,0.22938 0.0335,0.0992 0.0995,0.19319 0.1467,0.20883 0.0521,0.0173 0.0687,9e-4 0.0425,-0.0411 -0.0238,-0.0383 -0.0165,-0.0701 0.0159,-0.0701 0.0957,0 0.13014,0.16434 0.0519,0.2476 -0.0558,0.059 -0.0551,0.0834 0.005,0.10511 0.0425,0.0155 0.0776,0.0873 0.0776,0.1593 0,0.10179 0.0161,0.11421 0.0738,0.0565 0.11786,-0.11793 0.18564,-0.0862 0.13782,0.0645 -0.0374,0.11788 -0.0304,0.12722 0.0481,0.0621 0.0748,-0.0621 0.10989,-0.0562 0.18499,0.0313 0.0509,0.0594 0.10975,0.15682 0.13081,0.2163 l 4.7e-4,-4.7e-4 c 0.0339,0.0957 0.13292,0.10841 0.85912,0.10791 3.47358,-0.003 9.90839,-0.55584 13.67481,-1.17584 0.45532,-0.075 0.74592,-0.12257 0.95255,-0.16585 l 0.014,0.0121 2.45681,-0.44567 0.0457,-0.0416 c 0.55274,-0.11553 1.29757,-0.28282 1.93873,-0.44148 3.21753,-0.79608 5.95657,-1.85383 7.45781,-2.87959 0.35028,-0.23934 0.39477,-0.22148 0.14015,0.0556 l -0.21303,0.23172 0.22844,-0.21022 c 0.12578,-0.1155 0.22353,-0.23772 0.2163,-0.2719 -0.007,-0.0342 0.10373,-0.14167 0.24527,-0.23872 0.39032,-0.26763 1.02367,-0.98396 1.21462,-1.37393 0.5058,-1.03298 0.30703,-1.91962 -0.65449,-2.92117 -1.44032,-1.50027 -4.29659,-2.77282 -8.65095,-3.8541 -4.37752,-1.08707 -9.65905,-1.80283 -15.92841,-2.15877 -1.4634,-0.0831 -5.66373,-0.20511 -5.93252,-0.17238 z m -4.76601,0.0528 c -0.0896,-8e-5 -0.18146,0.004 -0.25414,0.01 -0.14535,0.013 -0.042,0.0236 0.22985,0.0239 0.2715,1.8e-4 0.39098,-0.0106 0.26442,-0.0239 -0.0633,-0.006 -0.15052,-0.01 -0.24013,-0.01 z m -1.72383,0.0617 c -0.0617,0 -0.12285,0.004 -0.16959,0.0108 -0.0935,0.0142 -0.0169,0.0257 0.17005,0.0257 0.18694,0 0.26305,-0.0115 0.16958,-0.0257 -0.0467,-0.007 -0.10843,-0.0108 -0.17004,-0.0108 z m -1.18193,0.0621 c -0.056,-1.5e-4 -0.1142,0.004 -0.16117,0.0103 -0.0939,0.0142 -0.0316,0.0261 0.13828,0.0266 0.16994,4.5e-4 0.24701,-0.011 0.17098,-0.0257 -0.038,-0.007 -0.0921,-0.011 -0.14809,-0.0112 z m -1.05065,0.0621 c -0.0448,-1.9e-4 -0.0919,0.004 -0.13034,0.0108 v -4.6e-4 c -0.0768,0.0147 -0.0285,0.0273 0.10745,0.028 0.13615,7.2e-4 0.1988,-0.0111 0.13968,-0.0266 -0.0296,-0.007 -0.072,-0.0115 -0.11679,-0.0117 z m -0.91891,0.0621 c -0.0392,0 -0.0787,0.004 -0.10838,0.0117 -0.0595,0.0155 -0.0106,0.028 0.10838,0.028 0.119,0 0.1674,-0.0125 0.10791,-0.028 -0.0297,-0.008 -0.0687,-0.0117 -0.10791,-0.0117 z m -0.811,0.0621 c -0.0336,-4.7e-4 -0.0694,0.003 -0.0995,0.0108 v 4.7e-4 c -0.0601,0.0156 -0.0259,0.0299 0.0761,0.0308 0.10209,9e-4 0.15118,-0.0116 0.10932,-0.0285 -0.0209,-0.009 -0.0523,-0.0131 -0.086,-0.0136 z m -0.74139,0.0617 c -0.0336,-4.7e-4 -0.0694,0.004 -0.0995,0.0112 v 4.7e-4 c -0.0601,0.0156 -0.0259,0.0299 0.0761,0.0308 0.10209,9.1e-4 0.15117,-0.0116 0.10931,-0.0285 -0.0209,-0.009 -0.0523,-0.0136 -0.086,-0.014 z m -0.67972,0.0621 c -0.0336,-4.6e-4 -0.0695,0.003 -0.0995,0.0108 v 4.6e-4 c -0.0601,0.0156 -0.0258,0.0299 0.0761,0.0308 0.102,9e-4 0.15115,-0.0116 0.10932,-0.0285 -0.0209,-0.009 -0.0524,-0.0131 -0.086,-0.0136 z m -0.67225,0.0617 c -0.028,0 -0.0563,0.005 -0.0776,0.0131 -0.0425,0.0172 -0.007,0.0308 0.0776,0.0308 0.0849,0 0.11957,-0.0137 0.0771,-0.0308 -0.0213,-0.009 -0.0491,-0.0131 -0.0771,-0.0131 z m -0.61805,0.0616 c -0.028,0 -0.0563,0.005 -0.0775,0.0131 -0.0425,0.0172 -0.007,0.0313 0.0775,0.0313 0.0849,0 0.11957,-0.0141 0.0771,-0.0313 -0.0212,-0.009 -0.0491,-0.0131 -0.0771,-0.0131 z m -0.5564,0.0621 c -0.028,0 -0.0558,0.004 -0.0771,0.0126 -0.0425,0.0172 -0.008,0.0313 0.0771,0.0313 0.0849,0 0.11957,-0.0141 0.0771,-0.0313 -0.0212,-0.009 -0.0491,-0.0126 -0.0771,-0.0126 z m -0.56106,0.0612 c -0.0215,-8.3e-4 -0.0464,0.004 -0.0687,0.0121 v -4.7e-4 c -0.0493,0.0197 -0.0346,0.0346 0.0374,0.0373 0.0651,0.003 0.10183,-0.0122 0.0813,-0.0327 -0.0103,-0.0101 -0.0285,-0.0155 -0.05,-0.0164 z m -0.49473,0.0616 c -0.0215,-8.3e-4 -0.0459,0.004 -0.0682,0.0121 v -4.7e-4 c -0.0493,0.0197 -0.0346,0.0346 0.0374,0.0373 0.0651,0.003 0.10183,-0.0117 0.0813,-0.0323 -0.0103,-0.01 -0.029,-0.016 -0.0505,-0.0168 z m -0.49426,0.0621 c -0.0215,-8.3e-4 -0.0459,0.003 -0.0682,0.0117 -0.0493,0.0197 -0.0346,0.0346 0.0374,0.0373 0.0651,0.003 0.10136,-0.0122 0.0808,-0.0327 -0.0103,-0.0101 -0.0285,-0.0155 -0.05,-0.0164 z m -0.49426,0.0616 c -0.0215,-8.4e-4 -0.0459,0.004 -0.0682,0.0121 v -4.7e-4 c -0.0493,0.0197 -0.0346,0.0346 0.0374,0.0373 0.0651,0.003 0.10136,-0.0122 0.0808,-0.0327 -0.0103,-0.0101 -0.0285,-0.0156 -0.05,-0.0164 z m -0.86518,0.1238 c -0.0215,-8.4e-4 -0.0459,0.003 -0.0682,0.0117 -0.0493,0.0197 -0.0346,0.0346 0.0374,0.0373 0.0651,0.003 0.10135,-0.0122 0.0808,-0.0327 -0.0103,-0.01 -0.0285,-0.0155 -0.05,-0.0164 z m -0.4326,0.0616 c -0.0215,-8.5e-4 -0.0459,0.004 -0.0682,0.0121 v -4.7e-4 c -0.0493,0.0197 -0.0346,0.0346 0.0374,0.0373 0.0651,0.003 0.10136,-0.0122 0.0808,-0.0327 -0.0103,-0.0101 -0.0285,-0.0156 -0.05,-0.0164 z m -0.43259,0.0617 c -0.0215,-8.5e-4 -0.0459,0.004 -0.0682,0.0121 v -4.7e-4 c -0.0493,0.0197 -0.0346,0.0346 0.0374,0.0373 0.0651,0.003 0.10136,-0.0118 0.0808,-0.0323 -0.0103,-0.01 -0.0285,-0.016 -0.05,-0.0168 z m -14.34427,4.81271 c -0.017,0 -0.081,0.0558 -0.14248,0.1238 -0.0615,0.068 -0.0978,0.1238 -0.0808,0.1238 0.017,0 0.081,-0.0559 0.14248,-0.1238 0.0615,-0.068 0.0978,-0.1238 0.0808,-0.1238 z m -1.06607,1.89015 c -0.009,-0.0142 -0.0164,0.0529 -0.0168,0.18032 -4.6e-4,0.16996 0.011,0.24702 0.0257,0.17099 0.0147,-0.076 0.0151,-0.21533 9.1e-4,-0.30927 -0.004,-0.0235 -0.007,-0.0373 -0.01,-0.042 z m 1.47951,2.65209 0.30693,0.32467 c 0.16867,0.17845 0.31444,0.32422 0.32421,0.32422 0.0461,0 -0.005,-0.057 -0.30646,-0.34196 z m 1.48325,1.42157 0.39989,0.41719 c 0.21995,0.2294 0.40769,0.41718 0.41718,0.41718 0.0455,0 -0.0124,-0.063 -0.39989,-0.43447 z m 58.18012,0.21631 c -0.017,0 -0.2099,0.18082 -0.42886,0.40175 -0.21897,0.22093 -0.38419,0.40177 -0.36719,0.40177 0.017,0 0.20988,-0.18084 0.42885,-0.40177 0.21897,-0.22093 0.38419,-0.40175 0.3672,-0.40175 z m -5.1304,5.12945 c -0.017,0 -0.16757,0.13885 -0.33496,0.3088 -0.16738,0.16995 -0.29075,0.30926 -0.27375,0.30926 0.017,0 0.16803,-0.13931 0.33542,-0.30926 0.16738,-0.16995 0.29029,-0.3088 0.27329,-0.3088 z m -47.611,0.0925 0.33776,0.35552 c 0.18578,0.19544 0.34586,0.35504 0.35551,0.35504 0.0459,0 -0.008,-0.0589 -0.33776,-0.3728 z m 1.23612,1.29778 0.21302,0.23171 c 0.11713,0.12747 0.22139,0.23172 0.23172,0.23172 0.0472,0 0.003,-0.0522 -0.21303,-0.2504 z m 45.05141,0 -0.20088,0.18126 c -0.11045,0.0998 -0.20089,0.19021 -0.20089,0.20088 0,0.0477 0.0509,0.006 0.22004,-0.18125 z m -44.24789,0.86519 0.18126,0.20089 c 0.16918,0.18693 0.22003,0.22898 0.22003,0.18125 0,-0.0107 -0.0904,-0.10058 -0.20088,-0.20041 z m 43.40185,0.0308 c -0.017,0 -0.0814,0.0558 -0.14295,0.12381 -0.0616,0.068 -0.0978,0.12332 -0.0808,0.12332 0.017,0 0.081,-0.0553 0.14249,-0.12332 0.0616,-0.068 0.0983,-0.12381 0.0813,-0.12381 z m -42.72213,0.71056 0.11773,0.13922 c 0.11063,0.13065 0.16023,0.16717 0.16023,0.11772 0,-0.0118 -0.0627,-0.0745 -0.13921,-0.13921 z m 42.04241,0.0313 c -0.017,0 -0.0814,0.0553 -0.14295,0.12332 -0.0616,0.068 -0.0978,0.1238 -0.0808,0.1238 0.017,0 0.081,-0.0558 0.14248,-0.1238 0.0616,-0.068 0.0983,-0.12332 0.0813,-0.12332 z m -41.45565,0.61759 c -0.003,0.004 0.0158,0.0286 0.0542,0.0776 0.0466,0.0595 0.0951,0.10791 0.10791,0.10791 0.0509,0 0.0184,-0.0505 -0.0846,-0.13127 -0.049,-0.0384 -0.0744,-0.0574 -0.0776,-0.0541 z m 50.1192,0.25553 c -0.028,0 -0.0563,0.004 -0.0776,0.0126 -0.0425,0.0172 -0.007,0.0313 0.0776,0.0313 0.0854,0 0.11958,-0.0141 0.0771,-0.0313 -0.0212,-0.009 -0.0491,-0.0126 -0.0771,-0.0126 z m -49.71744,0.20835 0.11772,0.13875 c 0.11063,0.13066 0.16024,0.16718 0.16024,0.11773 0,-0.0117 -0.0623,-0.074 -0.13875,-0.13875 z m 40.07659,0.0308 c -0.004,-0.004 -0.0281,0.0153 -0.0771,0.0537 -0.0595,0.0466 -0.10838,0.0955 -0.10838,0.10838 0,0.0509 0.051,0.0179 0.13174,-0.0851 0.0384,-0.049 0.057,-0.0739 0.0537,-0.0771 z m 8.82566,0.0616 c -0.017,0 -0.0815,0.0558 -0.14296,0.12381 -0.0616,0.068 -0.0978,0.12332 -0.0808,0.12332 0.017,0 0.0815,-0.0553 0.14296,-0.12332 0.0616,-0.068 0.0978,-0.12381 0.0808,-0.12381 z m -48.43882,0.4326 c -0.003,0.004 0.0158,0.028 0.0542,0.0771 v 4.7e-4 c 0.0807,0.10287 0.13127,0.13544 0.13127,0.0845 0,-0.0128 -0.0484,-0.0613 -0.10792,-0.10791 -0.049,-0.0384 -0.0744,-0.0574 -0.0776,-0.0541 z m 0.30926,0.37093 c -0.003,0.004 0.0153,0.0281 0.0537,0.0771 0.0466,0.0595 0.0956,0.10839 0.10838,0.10839 0.0509,0 0.0179,-0.051 -0.085,-0.13174 -0.049,-0.0384 -0.0739,-0.057 -0.0771,-0.0537 z m 47.54046,0.33215 c -0.006,0.006 -0.0108,0.0285 -0.0121,0.0645 -0.003,0.0651 0.0122,0.10134 0.0327,0.0808 0.0202,-0.0205 0.0226,-0.0735 0.005,-0.11819 -0.01,-0.0246 -0.0187,-0.0336 -0.0252,-0.0271 z m -47.17,0.10044 c -0.003,0.004 0.0158,0.0281 0.0542,0.0771 0.0466,0.0595 0.0951,0.10839 0.10791,0.10839 0.0509,0 0.0184,-0.051 -0.0846,-0.13175 -0.049,-0.0384 -0.0744,-0.057 -0.0776,-0.0537 z m 47.18168,0.3373 c -0.0112,-0.005 -0.0192,0.0316 -0.0192,0.0953 0,0.0853 0.0141,0.11957 0.0313,0.0771 0.0172,-0.0425 0.0172,-0.11214 0,-0.15463 -0.005,-0.0106 -0.008,-0.0164 -0.0121,-0.0177 z m 2.98751,1.76401 c -0.017,0 -0.0815,0.0553 -0.14295,0.12332 -0.0616,0.068 -0.0978,0.12381 -0.0808,0.12381 0.017,0 0.0814,-0.0558 0.14295,-0.12381 0.0616,-0.068 0.0978,-0.12332 0.0808,-0.12332 z m -0.98431,0.5022 c -0.0336,-4.6e-4 -0.0694,0.003 -0.0995,0.0108 v 4.6e-4 c -0.0601,0.0156 -0.0263,0.0299 0.0757,0.0308 0.10209,9.1e-4 0.15164,-0.0116 0.10978,-0.0285 -0.0209,-0.009 -0.0523,-0.0131 -0.086,-0.0136 z m -44.20725,5.06779 c -0.0154,0.0155 0.0555,0.27098 0.1579,0.56807 0.4619,1.34007 0.67531,2.93166 0.5606,4.18486 -0.0799,0.87282 -0.26716,1.79674 -0.50828,2.51006 -0.0846,0.25038 -0.13615,0.43951 -0.14435,0.51015 l -0.0299,0.0168 -0.61105,1.45055 c 0,0 0.007,0.0146 0.007,0.0155 l -0.41064,0.7428 c -1.88211,3.40593 -4.69762,6.79986 -10.7714,12.98388 -2.21435,2.25452 -2.587,2.7108 -3.15195,3.86064 -0.74929,1.52504 -0.92068,3.03914 -0.51808,4.57307 1.43882,5.48207 10.18569,10.03831 21.9366,11.42683 1.21704,0.1438 3.27537,0.32059 4.2638,0.36579 l -4.7e-4,-4.7e-4 c 0.22094,0.01 0.67992,0.0183 1.01983,0.0183 0.45839,-2.7e-4 0.50238,-0.006 0.17004,-0.022 l -0.448,-0.021 v -0.26442 c 0,-0.14541 0.0822,-1.87534 0.18312,-3.84428 0.16321,-3.18364 0.27849,-5.59893 0.36252,-7.50967 0.12055,-0.66269 0.22192,-1.38805 0.30085,-2.18398 0.47503,-4.78979 0.36454,-8.61296 -0.0588,-11.65201 -0.005,-0.122 -0.008,-0.29389 -0.0121,-0.38681 l -0.0463,-0.97357 h -0.16024 c -1.3286,-7.23239 -4.45043,-9.38847 -4.72489,-9.56564 -0.16419,-0.18734 -0.29869,-0.29757 -0.37933,-0.28871 -0.11588,0.0128 -0.22641,-0.0702 -0.48912,-0.36766 -0.29308,-0.33173 -0.32598,-0.39322 -0.23919,-0.44801 0.0878,-0.0553 0.0675,-0.10314 -0.15977,-0.37467 -0.72198,-0.86232 -3.77931,-3.51839 -5.59708,-4.86271 -0.26052,-0.19266 -0.47371,-0.38165 -0.47371,-0.41998 0,-0.038 -0.0126,-0.057 -0.028,-0.0416 z m 27.17539,2.67265 c -0.006,0.006 -0.0113,0.028 -0.0126,0.064 h 4.6e-4 c -0.003,0.0651 0.0122,0.10134 0.0327,0.0808 0.0202,-0.0205 0.0221,-0.0736 0.005,-0.11819 -0.01,-0.0247 -0.0183,-0.0331 -0.0248,-0.0266 z m -0.0476,0.58302 c -0.0107,-0.0109 -0.019,0.0277 -0.0196,0.10417 h -4.6e-4 c -9.1e-4,0.1021 0.0116,0.15117 0.0285,0.10932 0.0174,-0.0419 0.0184,-0.12534 0.003,-0.18546 -0.004,-0.015 -0.007,-0.0244 -0.0112,-0.028 z m -0.004,1.27582 c -0.0112,-0.005 -0.0187,0.0316 -0.0187,0.0953 0,0.0853 0.0136,0.11957 0.0308,0.0771 0.0172,-0.0425 0.0172,-0.11214 0,-0.15463 -0.005,-0.0106 -0.008,-0.0164 -0.0121,-0.0177 z m 0.0504,0.67458 c -0.006,0.006 -0.0108,0.0285 -0.0121,0.0645 -0.003,0.0651 0.0122,0.10134 0.0327,0.0808 0.0202,-0.0205 0.022,-0.0735 0.005,-0.11819 -0.01,-0.0247 -0.0183,-0.0336 -0.0248,-0.0271 z m 25.67953,9.98797 c -0.017,0 -0.0814,0.0558 -0.14296,0.12379 -0.0616,0.068 -0.0978,0.12381 -0.0808,0.12381 0.017,0 0.0809,-0.0558 0.14248,-0.12381 0.0616,-0.068 0.0983,-0.12379 0.0813,-0.12379 z m -19.39338,1.23611 c -0.004,0.004 0.0157,0.0286 0.0541,0.0776 0.0807,0.10288 0.13127,0.13546 0.13127,0.0845 0,-0.0128 -0.0485,-0.0613 -0.10792,-0.10791 -0.049,-0.0384 -0.0744,-0.0574 -0.0776,-0.0542 z m 0.4326,0.49427 c -0.004,0.004 0.0157,0.0286 0.0542,0.0776 0.0807,0.10288 0.13127,0.13545 0.13127,0.0845 0,-0.0128 -0.0485,-0.0613 -0.10791,-0.10792 -0.049,-0.0384 -0.0744,-0.0574 -0.0776,-0.0541 z m -59.54517,0.21396 c -0.0112,-0.005 -0.0192,0.0315 -0.0192,0.0953 0,0.0854 0.0142,0.11957 0.0313,0.0771 0.0171,-0.0425 0.0171,-0.11214 0,-0.15463 -0.004,-0.0106 -0.008,-0.0164 -0.0121,-0.0177 z m 59.97776,0.28076 c -0.004,0.004 0.0157,0.0281 0.0542,0.0771 0.0807,0.10288 0.13127,0.13592 0.13127,0.0851 0,-0.0128 -0.0484,-0.0617 -0.10791,-0.10838 -0.049,-0.0384 -0.0744,-0.057 -0.0776,-0.0537 z m 0.52556,0.58676 0.11772,0.13921 c 0.0647,0.0765 0.127,0.13922 0.13875,0.13922 0.0494,0 0.0129,-0.0501 -0.11772,-0.16071 z m 16.62589,0.29244 c -0.01,-0.007 -0.0164,0.0567 -0.0164,0.17145 0,0.15297 0.0124,0.21523 0.0271,0.13875 0.0147,-0.0765 0.0147,-0.20148 0,-0.27796 -0.004,-0.0192 -0.007,-0.0297 -0.0108,-0.0323 z m -16.0083,0.38775 0.14996,0.16958 c 0.13999,0.15886 0.19014,0.19841 0.19014,0.14996 0,-0.011 -0.0766,-0.0877 -0.17006,-0.17005 z m 0.86519,0.92685 0.18172,0.20088 c 0.0998,0.11045 0.19022,0.20088 0.20089,0.20088 0.0477,0 0.005,-0.0513 -0.18173,-0.2205 z m 1.17444,1.23611 0.3999,0.41718 c 0.37145,0.38743 0.43447,0.44535 0.43447,0.3999 0,-0.009 -0.18778,-0.19724 -0.41718,-0.41719 z m 5.91898,8.02589 c -0.006,0.006 -0.0108,0.028 -0.0121,0.064 -0.003,0.0651 0.0122,0.10181 0.0327,0.0813 0.0202,-0.0205 0.0226,-0.074 0.005,-0.11866 -0.01,-0.0246 -0.0187,-0.0331 -0.0252,-0.0266 z m 0.0789,0.69233 c -0.009,-0.0142 -0.0164,0.0529 -0.0168,0.18032 -4.5e-4,0.16993 0.011,0.24702 0.0257,0.17099 0.0147,-0.076 0.0151,-0.21533 9e-4,-0.30927 -0.004,-0.0235 -0.006,-0.0373 -0.01,-0.042 z m -2.32507,5.46395 c -0.017,0 -0.18211,0.15315 -0.36673,0.34009 -0.18462,0.18694 -0.32158,0.34009 -0.30459,0.34009 0.017,0 0.18164,-0.15315 0.36626,-0.34009 0.18461,-0.18694 0.32205,-0.34009 0.30506,-0.34009 z m -16.87209,7.36203 c -0.0214,-8.4e-4 -0.0458,0.003 -0.0682,0.0117 -0.0493,0.0197 -0.0346,0.0342 0.0373,0.0369 0.0651,0.003 0.10134,-0.0118 0.0808,-0.0323 -0.0103,-0.0101 -0.0285,-0.0155 -0.05,-0.0164 z m -0.37094,0.0617 c -0.0214,-8.4e-4 -0.0458,0.004 -0.0682,0.0121 v -4.6e-4 c -0.0493,0.0197 -0.0346,0.0346 0.0373,0.0373 0.0651,0.003 0.10179,-0.0122 0.0813,-0.0327 -0.0103,-0.0101 -0.029,-0.0155 -0.0504,-0.0164 z m -0.80305,0.1238 c -0.0215,-8.4e-4 -0.0464,0.003 -0.0687,0.0117 -0.0483,0.0195 -0.0342,0.0342 0.0373,0.0369 0.0651,0.003 0.10181,-0.0117 0.0813,-0.0323 -0.0103,-0.01 -0.0286,-0.0155 -0.05,-0.0164 z m -0.4326,0.0617 c -0.0214,-8.4e-4 -0.0464,0.004 -0.0687,0.0121 -0.0483,0.0195 -0.0342,0.0342 0.0373,0.0369 0.0651,0.003 0.10181,-0.0122 0.0813,-0.0327 -0.0103,-0.0101 -0.0285,-0.0155 -0.05,-0.0164 z m -0.43259,0.0617 c -0.0214,-8.4e-4 -0.0464,0.004 -0.0687,0.0121 -0.0483,0.0195 -0.0342,0.0342 0.0374,0.0369 0.0651,0.003 0.10181,-0.0118 0.0813,-0.0323 -0.0102,-0.0101 -0.0285,-0.016 -0.05,-0.0168 z m -0.49472,0.0621 c -0.0215,-8.4e-4 -0.0459,0.003 -0.0683,0.0117 -0.0493,0.0197 -0.0346,0.0342 0.0373,0.0369 0.0651,0.003 0.10181,-0.0118 0.0813,-0.0323 -0.0103,-0.01 -0.029,-0.0155 -0.0504,-0.0164 z m -0.55079,0.0621 c -0.028,0 -0.0563,0.004 -0.0776,0.0126 -0.0424,0.0172 -0.007,0.0313 0.0776,0.0313 0.0844,0 0.11957,-0.0141 0.0771,-0.0313 -0.0212,-0.009 -0.0491,-0.0126 -0.0771,-0.0126 z m -0.5564,0.0616 c -0.028,0 -0.0559,0.005 -0.0771,0.0131 -0.0424,0.0172 -0.008,0.0313 0.0771,0.0313 0.0844,0 0.12005,-0.0141 0.0776,-0.0313 -0.0212,-0.009 -0.0495,-0.0131 -0.0776,-0.0131 z m -0.56339,0.0617 c -0.0336,-4.6e-4 -0.0694,0.004 -0.0995,0.0112 v 4.7e-4 c -0.0602,0.0157 -0.0263,0.0299 0.0757,0.0308 0.1021,9.1e-4 0.15117,-0.0116 0.10932,-0.0285 -0.0209,-0.009 -0.0519,-0.0136 -0.0855,-0.014 z m -0.73439,0.0616 c -0.0392,0 -0.0782,0.004 -0.10791,0.0117 -0.0595,0.0155 -0.011,0.028 0.10791,0.028 0.119,0 0.16787,-0.0125 0.10839,-0.028 -0.0297,-0.008 -0.0692,-0.0117 -0.10839,-0.0117 z m -0.74979,0.0617 c -0.0448,-1.9e-4 -0.0915,0.004 -0.12987,0.0108 v -4.6e-4 c -0.0768,0.0147 -0.0286,0.0274 0.10744,0.028 0.13615,7.2e-4 0.19881,-0.0111 0.13968,-0.0266 -0.0296,-0.007 -0.0724,-0.0115 -0.11725,-0.0117 z m -0.98852,0.0612 c -0.056,-1.6e-4 -0.11421,0.004 -0.16117,0.0108 -0.0939,0.0142 -0.0316,0.026 0.13828,0.0266 0.16994,4.5e-4 0.24701,-0.011 0.17098,-0.0257 -0.038,-0.007 -0.0921,-0.0116 -0.14809,-0.0117 z m -1.41317,0.0616 c -0.0952,0 -0.19079,0.004 -0.26302,0.01 -0.14445,0.013 -0.0258,0.0239 0.26302,0.0239 0.28886,0 0.407,-0.0109 0.26254,-0.0239 -0.0722,-0.006 -0.16733,-0.01 -0.26254,-0.01 z" /><path
         id="path185-4"
         style="fill:#ffffff;fill-opacity:0.772388;stroke-width:0.061799"
         d="m 236.31812,164.75527 c -0.009,-0.0125 -0.0149,0.0938 -0.0149,0.28496 0,0.25489 0.011,0.35919 0.0243,0.23172 0.0134,-0.12746 0.0134,-0.33597 0,-0.46342 -0.004,-0.0319 -0.006,-0.0491 -0.009,-0.0532 z m 1.06327,0.39335 c -9.1e-4,-0.0409 -0.004,0.46674 -0.005,0.55265 l -3.30379,0.0397 c -4.02894,0.0737 -8.45725,0.38777 -11.94257,0.84696 -0.52683,0.0694 -1.08651,0.1426 -1.24359,0.16258 l -0.28544,0.036 0.40083,0.84229 c 0.22053,0.46314 0.65071,1.38435 0.95582,2.04711 0.30511,0.66279 0.58537,1.24252 0.62319,1.28844 0.0378,0.0459 0.074,0.11861 0.0804,0.16164 0.0206,0.14049 0.56798,0.85824 0.96517,1.26555 0.2136,0.21906 0.38129,0.42062 0.37279,0.44801 -0.008,0.0273 0.0115,0.05 0.0439,0.05 0.0776,0 0.36915,0.29234 0.33029,0.33121 -0.0165,0.0165 0.0491,0.0722 0.14575,0.12334 0.0966,0.0511 0.23101,0.17808 0.29899,0.28263 0.068,0.10453 0.15935,0.1764 0.20321,0.15977 0.0487,-0.0185 0.0731,0.01 0.0621,0.0733 -0.0122,0.0702 0.0451,0.12212 0.17799,0.16117 0.13009,0.0382 0.20875,0.10753 0.23358,0.20649 0.0206,0.082 0.0992,0.17337 0.17472,0.20275 0.0755,0.0294 0.26929,0.18102 0.43072,0.33682 0.16145,0.1558 0.29581,0.2489 0.29852,0.20696 0.003,-0.042 0.0331,2.1e-4 0.0673,0.0939 0.0342,0.0937 0.0876,0.15464 0.11866,0.13547 0.0311,-0.0192 0.0565,0.009 0.0565,0.0617 0,0.053 0.0348,0.0962 0.0776,0.0962 0.0428,0 0.1123,0.055 0.15416,0.12192 0.0447,0.0714 0.11442,0.10694 0.16911,0.086 0.0513,-0.0197 0.0934,-0.005 0.0934,0.0345 0,0.0979 0.33709,0.41845 0.49192,0.46763 0.0703,0.0222 0.11292,0.0643 0.0948,0.0934 -0.0181,0.0292 -0.005,0.0707 0.0304,0.092 0.0345,0.0213 0.0626,0.005 0.0626,-0.035 0,-0.0406 0.0559,-0.004 0.1238,0.0832 0.068,0.0864 0.12333,0.18677 0.12333,0.22284 0,0.0361 0.0431,0.0491 0.0958,0.0289 0.0546,-0.0209 0.13029,0.0101 0.17612,0.0729 0.0442,0.0604 0.10978,0.0918 0.14576,0.0696 0.0412,-0.0253 0.0534,0.005 0.0332,0.0832 -0.0178,0.068 -0.004,0.12381 0.0323,0.12381 0.0948,0 1.00019,0.84535 1.00019,0.93386 0,0.0291 0.0973,0.0937 0.2163,0.14341 0.11896,0.0497 0.21629,0.12132 0.21629,0.15884 0,0.0375 0.0835,0.0971 0.18547,0.13268 0.10196,0.0355 0.18546,0.10264 0.18546,0.14902 0,0.1695 0.60811,0.68796 0.76475,0.65216 0.0299,-0.007 0.0387,0.0264 0.0205,0.0738 -0.0413,0.10774 0.16415,0.28964 0.32702,0.28964 0.0812,0 0.15227,0.0728 0.21256,0.21723 0.0499,0.11943 0.1408,0.23613 0.20182,0.25928 0.14568,0.0551 0.26534,0.17649 0.26534,0.26862 0,0.0557 0.0209,0.056 0.0855,0.003 0.0662,-0.0549 0.0941,-0.0484 0.1238,0.0289 0.0212,0.055 0.0228,0.12511 0.004,0.15603 -0.0191,0.0309 -0.005,0.0565 0.0308,0.0565 0.036,0 0.0654,-0.0281 0.0654,-0.0621 0,-0.034 0.029,-0.0617 0.0645,-0.0617 0.0354,0 0.0565,0.0351 0.0467,0.0776 -0.01,0.0425 -2.1e-4,0.0771 0.0215,0.0771 0.0217,0 0.0981,0.053 0.16959,0.11772 0.0715,0.0647 0.13033,0.10048 0.13033,0.0795 0,-0.0211 0.0651,0.0232 0.14435,0.0986 0.0793,0.0752 0.14147,0.16455 0.13875,0.19854 -0.003,0.034 0.0295,0.0544 0.072,0.0463 0.0425,-0.008 0.0776,0.0438 0.0776,0.11586 0,0.10279 0.0178,0.11649 0.0827,0.0626 0.10037,-0.0833 0.16873,-0.03 0.121,0.0944 -0.0221,0.0574 0.0136,0.10286 0.0972,0.12474 0.0724,0.019 0.13174,0.0568 0.13174,0.0845 0,0.0278 0.0559,0.0684 0.12427,0.0901 0.0684,0.0217 0.10974,0.0636 0.0916,0.093 -0.0182,0.0294 0.0579,0.0643 0.1691,0.078 l 4.7e-4,4.7e-4 c 0.11112,0.0137 0.6579,0.0324 1.21509,0.0351 l 1.97704,0.009 v 4.6e-4 h 0.0257 l 0.14389,4.7e-4 v -0.002 l 1.61031,-0.0117 c 0.97888,-0.007 1.47969,-0.0218 1.11279,-0.0327 -0.56328,-0.0168 -0.67322,-0.0366 -0.70495,-0.12613 -0.0206,-0.0583 -0.0789,-0.15456 -0.12987,-0.21396 -0.0751,-0.0875 -0.11024,-0.0933 -0.185,-0.0313 -0.0785,0.0651 -0.086,0.0558 -0.0486,-0.0621 0.0478,-0.1507 -0.0194,-0.18236 -0.13735,-0.0645 -0.0577,0.0577 -0.0738,0.0452 -0.0738,-0.0565 0,-0.072 -0.0351,-0.14376 -0.0776,-0.15931 -0.0589,-0.0217 -0.0597,-0.0461 -0.005,-0.10511 0.0783,-0.0833 0.0439,-0.24759 -0.0519,-0.24759 -0.0324,0 -0.0396,0.0316 -0.0159,0.0701 0.0262,0.0422 0.01,0.0584 -0.0425,0.0411 -0.0472,-0.0157 -0.11315,-0.10964 -0.14669,-0.20883 -0.0335,-0.0992 -0.0958,-0.20244 -0.13828,-0.22938 -0.0425,-0.0269 -0.10844,-0.10692 -0.14623,-0.17752 -0.052,-0.0975 -0.0507,-0.11741 0.005,-0.0832 0.0438,0.0271 0.0342,-0.0298 -0.0239,-0.14202 -0.0805,-0.15553 -0.0916,-0.36189 -0.0664,-1.22724 0.0618,-2.11615 0.36934,-8.81428 0.5634,-12.2724 l 0.0407,-0.72597 h -0.71757 -0.70121 v -0.0196 h -0.0168 z m -17.10988,1.69113 c -0.0215,-8.5e-4 -0.0464,0.004 -0.0687,0.0121 v -4.6e-4 c -0.0493,0.0197 -0.0346,0.0346 0.0374,0.0373 0.0651,0.003 0.10183,-0.0117 0.0813,-0.0323 -0.0103,-0.0101 -0.0285,-0.016 -0.05,-0.0168 z m -0.43259,0.0621 c -0.0215,-8.5e-4 -0.0464,0.003 -0.0687,0.0117 -0.0493,0.0197 -0.0346,0.0346 0.0374,0.0373 0.0651,0.003 0.10182,-0.0122 0.0813,-0.0327 -0.0103,-0.01 -0.0285,-0.0155 -0.05,-0.0164 z m -13.7762,4.50346 c -0.003,-0.004 -0.0281,0.0157 -0.0771,0.0542 -0.0595,0.0466 -0.10838,0.0951 -0.10838,0.10791 0,0.0509 0.051,0.0184 0.13174,-0.0845 0.0384,-0.049 0.0569,-0.0744 0.0537,-0.0776 z m -0.71055,3.98631 0.11772,0.13875 c 0.0648,0.0765 0.12703,0.13921 0.13875,0.13921 0.0495,0 0.0129,-0.0496 -0.11772,-0.16024 z m 0.30879,0.30879 0.24433,0.26255 c 0.13436,0.14445 0.25245,0.26301 0.26255,0.26301 0.0468,0 -8e-5,-0.0541 -0.24433,-0.28123 z m 61.98424,0.37654 -0.1509,0.0953 c -0.0831,0.0523 -0.16199,0.12717 -0.17519,0.16677 -0.0379,0.11358 0.0149,0.0856 0.17659,-0.0948 z m -61.15689,0.37466 c -0.021,0.008 0.14376,0.17288 0.5634,0.58489 7.59212,7.45412 10.6033,10.71791 13.11936,14.22 0.97471,1.35668 2.19007,3.42529 2.11999,3.6079 -0.018,0.0468 -9.9e-4,0.0782 0.0374,0.0701 0.0384,-0.008 0.19888,0.27552 0.35645,0.6302 0.25995,0.58514 0.3177,0.66768 0.62319,0.89135 1.76111,1.28942 4.97136,4.07309 5.6966,4.93932 0.22737,0.27153 0.24755,0.31934 0.15977,0.37466 -0.0868,0.0548 -0.0539,0.11582 0.23919,0.44755 0.2627,0.29743 0.37325,0.38041 0.48912,0.36766 0.10061,-0.011 0.18722,0.0543 0.37093,0.2845 3.2e-4,4e-4 6.1e-4,5.3e-4 9e-4,9.1e-4 0.0209,0.0133 0.0649,0.0454 0.13315,0.0958 0.039,0.0282 0.0628,0.0449 0.11912,0.0897 0.012,0.01 0.0238,0.0195 0.0364,0.0299 0.13262,0.10744 0.30304,0.25972 0.50314,0.46155 5e-4,5.1e-4 9.1e-4,9e-4 0.002,0.002 3.1e-4,3.2e-4 6.2e-4,6.3e-4 9e-4,9.1e-4 0.27504,0.27764 0.60047,0.65272 0.95255,1.14174 0.0161,0.0223 0.032,0.0445 0.0481,0.0673 0.0808,0.11394 0.16152,0.23207 0.24433,0.35832 0.0148,0.0225 0.03,0.0471 0.0448,0.0701 0.14498,0.22419 0.29124,0.46915 0.43914,0.73299 0.0377,0.0672 0.0754,0.1311 0.11304,0.20088 0.0373,0.0691 0.0739,0.13755 0.11119,0.20929 0.0998,0.19189 0.19918,0.39324 0.29805,0.6045 0.0263,0.0562 0.0524,0.11331 0.0785,0.17099 0.10628,0.23373 0.21139,0.47789 0.31487,0.73531 0.0326,0.0811 0.065,0.16405 0.0972,0.2476 0.0223,0.0579 0.0451,0.11558 0.0673,0.17472 0.0281,0.075 0.0559,0.15148 0.0836,0.22845 0.0275,0.076 0.0546,0.15333 0.0817,0.23123 0.0229,0.0657 0.0456,0.13097 0.0682,0.19808 0.0476,0.14117 0.0944,0.28444 0.14061,0.43166 2.6e-4,8.2e-4 6.8e-4,0.002 9.1e-4,0.003 0.0157,0.0502 0.0307,0.10236 0.0463,0.15323 0.0354,0.11567 0.0706,0.23285 0.10511,0.35225 0.0153,0.0529 0.0303,0.10614 0.0453,0.15976 0.045,0.16006 0.0895,0.3229 0.13268,0.48959 9.1e-4,0.004 0.002,0.007 0.003,0.0112 3.1e-4,9.1e-4 6e-4,0.003 9e-4,0.004 0.0511,0.19758 0.1008,0.39979 0.14903,0.60685 0.0453,0.19445 0.0888,0.39407 0.13127,0.59704 0.005,0.0269 0.0112,0.0538 0.0168,0.0808 0.0425,0.20589 0.0839,0.41545 0.12333,0.6302 h 0.1607 l 0.0463,0.9731 c 0.005,0.0939 0.008,0.26741 0.0121,0.39101 4e-5,3.1e-4 -5e-5,6.3e-4 0,9.1e-4 0.0523,0.37628 0.0998,0.76484 0.14202,1.16556 3.7e-4,0.004 9e-4,0.006 0.002,0.0103 3.5e-4,0.004 5.7e-4,0.007 9e-4,0.0103 0.0411,0.39247 0.0775,0.79671 0.10791,1.21322 9.1e-4,0.0179 0.003,0.0357 0.004,0.0537 0.0293,0.40787 0.0529,0.82757 0.0711,1.25901 9e-4,0.0268 0.003,0.0534 0.004,0.0804 0.0171,0.42336 0.0281,0.85832 0.0336,1.30479 5e-4,0.0404 0.002,0.0804 0.002,0.12099 0.005,0.44107 0.003,0.89406 -0.005,1.35806 -7.4e-4,0.0447 -0.002,0.0887 -0.003,0.1336 -0.009,0.48136 -0.0251,0.97542 -0.0481,1.48185 -9e-4,0.022 -0.002,0.0434 -0.003,0.0654 -0.0237,0.50839 -0.0545,1.0299 -0.093,1.56406 -0.003,0.0369 -0.005,0.0728 -0.007,0.10978 -0.0411,0.5583 -0.0903,1.13036 -0.14856,1.7173 -0.0385,0.38802 -0.0826,0.75836 -0.13127,1.11418 -0.002,0.0137 -0.004,0.0279 -0.005,0.0416 -0.0495,0.35775 -0.10425,0.69889 -0.16351,1.02495 -2e-5,5.5e-4 3e-5,9.1e-4 0,0.002 -0.084,1.91085 -0.19879,4.32647 -0.36205,7.51106 -0.10089,1.96895 -0.18359,3.69888 -0.18359,3.84429 v 0.26442 l 0.44801,0.0261 v -4.8e-4 c 0.75229,0.0438 4.9613,-0.0146 5.97923,-0.0832 4.86481,-0.3275 9.11197,-1.08868 12.99417,-2.32836 0.60385,-0.19283 1.07668,-0.36652 1.05064,-0.38587 -0.0601,-0.0446 -0.0218,0.0364 -2.0387,-4.33014 -3.02087,-6.54006 -6.86098,-15.03599 -8.53322,-18.8795 l -0.18826,-0.43259 -1.19407,-0.14202 c -0.65687,-0.0782 -1.27804,-0.15496 -1.38001,-0.17051 -0.18163,-0.0277 -0.19383,-0.0535 -0.60871,-1.2791 -1.06893,-3.1576 -1.95495,-5.26156 -3.09916,-7.35969 l -0.4326,-0.79325 -0.0724,0.23732 c -0.04,0.1306 -0.0749,0.20615 -0.0776,0.16818 -0.003,-0.038 -0.20872,-0.38837 -0.45828,-0.77876 -0.37058,-0.57961 -0.46086,-0.77037 -0.49286,-1.04038 -0.0292,-0.24686 -0.10651,-0.43008 -0.30366,-0.72224 -0.23969,-0.35519 -0.28136,-0.38919 -0.45502,-0.37138 -0.171,0.0175 -0.22313,-0.0221 -0.48912,-0.3714 l -0.29758,-0.39056 0.13641,-0.0958 c 0.11057,-0.0774 0.12224,-0.11288 0.0617,-0.18593 -0.0629,-0.0758 -0.39692,-0.25073 -0.64656,-0.3387 -0.0366,-0.0129 -0.29821,-0.30151 -0.58161,-0.64141 -0.2834,-0.3399 -0.55787,-0.66805 -0.61012,-0.72925 -0.0892,-0.10477 -0.0851,-0.10777 0.072,-0.0481 0.0919,0.0346 0.16678,0.0495 0.16678,0.0323 0,-0.0174 0.0627,9.1e-4 0.13922,0.0411 0.16943,0.089 0.26177,0.20484 -1.01702,-1.27348 -2.09006,-2.41614 -4.31349,-4.72944 -10.79289,-11.22782 l -5.34155,-5.35697 -0.46997,-0.10184 c -3.91788,-0.84907 -7.30909,-2.07375 -9.18397,-3.31733 -0.13137,-0.0872 -0.2107,-0.13826 -0.22331,-0.13315 z m 60.00953,0.70122 c -0.017,0 -0.1821,0.15268 -0.36672,0.33963 -0.18462,0.18694 -0.32159,0.34009 -0.30459,0.34009 0.017,0 0.1821,-0.15315 0.36672,-0.34009 0.18462,-0.18695 0.32158,-0.33963 0.30459,-0.33963 z m -2.22136,2.16343 c -0.017,0 -0.68413,0.65366 -1.48231,1.45241 -0.79821,0.79875 -1.43765,1.45195 -1.42065,1.45195 0.017,0 0.68411,-0.6532 1.48231,-1.45195 0.79822,-0.79875 1.43764,-1.45241 1.42065,-1.45241 z m -32.71829,0.185 c -0.015,0 -0.0444,0.0277 -0.0654,0.0616 -0.021,0.034 -0.008,0.0617 0.0276,0.0617 0.036,0 0.0654,-0.0277 0.0654,-0.0617 0,-0.034 -0.0126,-0.0616 -0.0276,-0.0616 z m 25.53377,0.51855 -0.12847,0.0233 c 0.0106,0.004 0.0207,0.008 0.0472,0.009 0.0651,0.003 0.10181,-0.0118 0.0813,-0.0323 z m -0.37373,0.0677 -1.36131,0.24713 c 0.0587,-0.004 0.26771,-0.0388 0.76334,-0.1266 l 0.58723,-0.10372 z m -1.62713,0.29525 -0.0748,0.0136 -0.0136,-0.0117 c -0.003,8.2e-4 -0.005,4.9e-4 -0.007,0.002 v -4.6e-4 c -0.0493,0.0197 -0.0346,0.0346 0.0373,0.0373 0.0651,0.003 0.10182,-0.0122 0.0813,-0.0327 -0.005,-0.005 -0.0156,-0.005 -0.0233,-0.007 z m -0.39802,0.0528 c -0.0215,-8.4e-4 -0.0459,0.004 -0.0682,0.0121 v -4.7e-4 c -0.0493,0.0197 -0.0346,0.0346 0.0373,0.0373 0.0651,0.003 0.10181,-0.0118 0.0813,-0.0323 -0.0103,-0.0101 -0.029,-0.016 -0.0505,-0.0168 z m -0.74139,0.12379 c -0.0215,-8.3e-4 -0.0459,0.004 -0.0682,0.0121 v -4.7e-4 c -0.0493,0.0197 -0.0346,0.0346 0.0373,0.0373 0.0651,0.003 0.10181,-0.0122 0.0813,-0.0327 -0.0103,-0.01 -0.029,-0.0155 -0.0504,-0.0164 z m -0.37093,0.0617 c -0.0214,-8.4e-4 -0.0458,0.004 -0.0682,0.0121 v -4.6e-4 c -0.0493,0.0197 -0.0346,0.0346 0.0373,0.0373 0.0651,0.003 0.10182,-0.0118 0.0813,-0.0323 -0.0103,-0.0101 -0.029,-0.016 -0.0504,-0.0168 z m -0.43259,0.0621 c -0.0214,-8.5e-4 -0.0458,0.003 -0.0682,0.0117 -0.0493,0.0197 -0.0346,0.0342 0.0373,0.0369 0.0651,0.003 0.10181,-0.0118 0.0813,-0.0323 -0.0102,-0.0101 -0.029,-0.0155 -0.0504,-0.0164 z m -0.4326,0.0617 c -0.0215,-8.5e-4 -0.0459,0.004 -0.0682,0.0121 v -4.6e-4 c -0.0493,0.0197 -0.0346,0.0346 0.0374,0.0373 0.0651,0.003 0.1018,-0.0122 0.0813,-0.0327 -0.0102,-0.01 -0.0289,-0.0155 -0.0504,-0.0164 z m -0.43259,0.0617 c -0.0214,-8.5e-4 -0.0458,0.004 -0.0683,0.0121 v -4.7e-4 c -0.0493,0.0197 -0.0346,0.0346 0.0373,0.0373 0.0651,0.003 0.10181,-0.0118 0.0813,-0.0323 -0.0103,-0.01 -0.029,-0.016 -0.0504,-0.0168 z m -0.49426,0.0621 c -0.0214,-8.5e-4 -0.0458,0.003 -0.0682,0.0117 -0.0493,0.0197 -0.0346,0.0346 0.0373,0.0373 0.0651,0.003 0.10181,-0.0122 0.0813,-0.0327 -0.0103,-0.0101 -0.029,-0.0155 -0.0504,-0.0164 z m -0.48912,0.0621 c -0.028,0 -0.0563,0.004 -0.0776,0.0126 -0.0424,0.0172 -0.007,0.0313 0.0776,0.0313 0.0853,0 0.11958,-0.0141 0.0771,-0.0313 -0.0212,-0.009 -0.0491,-0.0126 -0.0771,-0.0126 z m -0.49426,0.0617 c -0.028,0 -0.0563,0.005 -0.0776,0.0131 -0.0425,0.0172 -0.008,0.0313 0.0771,0.0313 0.0854,0 0.12003,-0.0141 0.0776,-0.0313 -0.0212,-0.009 -0.0491,-0.0131 -0.0771,-0.0131 z m -0.49987,0.0616 c -0.0215,-8.4e-4 -0.0459,0.003 -0.0682,0.0117 -0.0493,0.0197 -0.0346,0.0342 0.0373,0.0369 0.0651,0.003 0.10181,-0.0118 0.0813,-0.0323 -0.0103,-0.0101 -0.029,-0.0156 -0.0504,-0.0164 z m -0.55826,0.0621 c -0.0336,-4.7e-4 -0.0694,0.003 -0.0995,0.0108 v 4.7e-4 c -0.0601,0.0156 -0.0259,0.0299 0.0761,0.0308 0.10209,9e-4 0.15118,-0.0116 0.10932,-0.0285 -0.0209,-0.009 -0.0523,-0.0131 -0.086,-0.0136 z m -0.61058,0.0616 c -0.028,0 -0.0563,0.005 -0.0776,0.0131 -0.0425,0.0172 -0.007,0.0313 0.0776,0.0313 0.0854,0 0.11958,-0.0141 0.0771,-0.0313 -0.0212,-0.009 -0.0491,-0.0131 -0.0771,-0.0131 z m -0.61806,0.0621 c -0.028,0 -0.0559,0.004 -0.0771,0.0126 -0.0425,0.0172 -0.008,0.0313 0.0771,0.0313 0.0854,0 0.11958,-0.0141 0.0771,-0.0313 -0.0212,-0.009 -0.0491,-0.0126 -0.0771,-0.0126 z m -0.62553,0.0616 c -0.0336,-4.6e-4 -0.0694,0.003 -0.0995,0.0108 v 4.6e-4 c -0.0602,0.0156 -0.0259,0.0299 0.0761,0.0308 0.10209,9e-4 0.15117,-0.0116 0.10931,-0.0285 -0.0209,-0.009 -0.0523,-0.0131 -0.086,-0.0136 z m -0.67972,0.0617 c -0.0336,-4.6e-4 -0.0694,0.004 -0.0995,0.0112 v 4.6e-4 c -0.0602,0.0156 -0.0258,0.0299 0.0761,0.0308 0.10209,9.1e-4 0.15118,-0.0116 0.10932,-0.0285 -0.0209,-0.009 -0.0523,-0.0136 -0.086,-0.014 z m -0.79605,0.0617 c -0.0392,0 -0.0782,0.004 -0.10792,0.0117 -0.0595,0.0155 -0.011,0.028 0.10792,0.028 0.11896,0 0.16786,-0.0125 0.10838,-0.028 -0.0297,-0.008 -0.0692,-0.0117 -0.10838,-0.0117 z m -0.81146,0.0612 c -0.0448,-1.9e-4 -0.0919,0.004 -0.13034,0.0108 -0.0768,0.0147 -0.0285,0.0274 0.10744,0.028 0.13616,7.3e-4 0.19927,-0.0117 0.14015,-0.0271 -0.0296,-0.007 -0.0724,-0.0115 -0.11725,-0.0117 z m -0.98852,0.0621 c -0.0448,-1.9e-4 -0.0919,0.004 -0.13035,0.0108 v -4.7e-4 c -0.0768,0.0147 -0.0285,0.0273 0.10746,0.028 0.13615,7.2e-4 0.1988,-0.0112 0.13968,-0.0267 -0.0296,-0.007 -0.072,-0.0115 -0.11679,-0.0117 z m -1.05065,0.0612 c -0.056,-1.6e-4 -0.11421,0.004 -0.16117,0.0108 -0.0939,0.0142 -0.0316,0.0261 0.13828,0.0267 0.16994,4.6e-4 0.247,-0.011 0.17097,-0.0257 -0.038,-0.007 -0.0921,-0.0115 -0.14808,-0.0117 z m -1.46783,0.0617 c -0.0784,1e-4 -0.1549,0.004 -0.20976,0.0108 -0.1097,0.0136 -0.005,0.0245 0.23311,0.0243 0.23789,-2.7e-4 0.3277,-0.0118 0.19948,-0.0252 -0.0641,-0.006 -0.14442,-0.01 -0.22283,-0.01 z m 17.96946,1.9093 c -0.017,0 -0.12529,0.0973 -0.2406,0.2163 -0.11528,0.11896 -0.19544,0.21629 -0.17845,0.21629 0.017,0 0.1248,-0.0973 0.24012,-0.21629 0.11527,-0.11896 0.19593,-0.2163 0.17893,-0.2163 z m -1.11746,1.17399 c -0.017,0 -0.0811,0.056 -0.14249,0.12379 -0.0616,0.068 -0.0983,0.12334 -0.0813,0.12334 0.017,0 0.0814,-0.0553 0.14294,-0.12334 0.0616,-0.068 0.0978,-0.12379 0.0808,-0.12379 z m -0.67973,0.74138 c -0.017,0 -0.0814,0.0558 -0.14295,0.1238 -0.0616,0.068 -0.0978,0.1238 -0.0808,0.1238 0.017,0 0.0814,-0.0558 0.14295,-0.1238 0.0616,-0.068 0.0978,-0.1238 0.0808,-0.1238 z m -0.66804,0.74186 c -0.004,-0.004 -0.028,0.0153 -0.0771,0.0537 -0.0595,0.0466 -0.10838,0.0955 -0.10838,0.10838 0,0.0509 0.0505,0.0179 0.13128,-0.085 0.0384,-0.049 0.0574,-0.0739 0.0542,-0.0771 z m -0.44427,0.49426 c -0.017,0 -0.0815,0.0558 -0.14295,0.1238 -0.0616,0.068 -0.0978,0.12333 -0.0808,0.12333 0.017,0 0.081,-0.0553 0.14248,-0.12333 0.0616,-0.068 0.0983,-0.1238 0.0813,-0.1238 z m -0.48258,0.5564 c -0.004,-0.004 -0.0286,0.0153 -0.0776,0.0537 -0.0595,0.0466 -0.10792,0.0956 -0.10792,0.10839 0,0.0509 0.0506,0.0179 0.13128,-0.0851 0.0384,-0.049 0.0574,-0.0739 0.0542,-0.0771 z m -0.37093,0.43259 c -0.004,-0.004 -0.0281,0.0153 -0.0771,0.0537 -0.0595,0.0466 -0.10838,0.0956 -0.10838,0.10839 0,0.0509 0.0505,0.0179 0.13127,-0.0851 0.0384,-0.049 0.0574,-0.0739 0.0542,-0.0771 z m -0.30879,0.37045 c -0.004,-0.004 -0.0286,0.0157 -0.0776,0.0541 -0.0595,0.0466 -0.10791,0.0951 -0.10791,0.10792 0,0.0509 0.0505,0.0183 0.13127,-0.0845 0.0384,-0.049 0.0574,-0.0744 0.0541,-0.0776 z m 9.11296,0.39943 c -0.0112,-0.005 -0.0192,0.0315 -0.0192,0.0953 0,0.0854 0.0141,0.11956 0.0313,0.0771 0.0172,-0.0425 0.0172,-0.11215 0,-0.15463 -0.005,-0.0107 -0.008,-0.0164 -0.0121,-0.0177 z m -15.09032,12.35462 c -0.006,0.006 -0.0113,0.028 -0.0126,0.064 h 4.6e-4 c -0.003,0.0651 0.0122,0.10181 0.0327,0.0813 0.0202,-0.0205 0.022,-0.074 0.005,-0.11867 -0.01,-0.0247 -0.0183,-0.0331 -0.0248,-0.0266 z m 26.67972,9.9959 c -0.028,0 -0.0559,0.005 -0.0771,0.0131 -0.0425,0.0172 -0.008,0.0313 0.0771,0.0313 0.0854,0 0.11957,-0.0141 0.0771,-0.0313 -0.0213,-0.009 -0.0491,-0.0131 -0.0771,-0.0131 z m -19.65218,2.4643 c -0.004,0.004 0.0157,0.0281 0.0541,0.0771 0.0466,0.0595 0.0951,0.10838 0.10791,0.10838 0.0509,0 0.0183,-0.051 -0.0845,-0.13174 -0.049,-0.0384 -0.0744,-0.057 -0.0776,-0.0537 z m 0.55639,0.61758 c -0.004,0.004 0.0153,0.0286 0.0537,0.0776 0.0466,0.0595 0.0956,0.10791 0.10838,0.10791 0.0509,0 0.0179,-0.0505 -0.085,-0.13127 -0.049,-0.0384 -0.0739,-0.0574 -0.0771,-0.0541 z m 0.61806,0.6802 c -0.004,0.004 0.0153,0.028 0.0537,0.0771 0.0807,0.10288 0.13173,0.13592 0.13173,0.0851 0,-0.0128 -0.0489,-0.0617 -0.10837,-0.10839 -0.049,-0.0384 -0.0739,-0.057 -0.0771,-0.0537 z m 0.64889,0.71054 0.18126,0.20089 c 0.0998,0.11044 0.19021,0.20088 0.20088,0.20088 0.0477,0 0.006,-0.0513 -0.18126,-0.2205 z m 1.11232,1.17399 0.21303,0.23172 c 0.11713,0.12745 0.2214,0.23171 0.23171,0.23171 0.0472,0 0.003,-0.0522 -0.21303,-0.2504 z m 2.96648,3.02816 0.3999,0.41717 c 0.37146,0.38743 0.434,0.44537 0.434,0.3999 0,-0.01 -0.1873,-0.19723 -0.41672,-0.41718 z m 0.86519,0.86519 0.18127,0.20088 c 0.0998,0.11044 0.1902,0.20087 0.20087,0.20087 0.0477,0 0.006,-0.0508 -0.18125,-0.22003 z m 0.58677,0.64888 c -0.004,0.004 0.0157,0.0286 0.0541,0.0776 0.0807,0.10288 0.13127,0.13545 0.13127,0.0845 0,-0.0128 -0.0485,-0.0613 -0.10791,-0.10791 -0.049,-0.0384 -0.0744,-0.0574 -0.0776,-0.0542 z m 1.93312,5.46208 c -0.006,0.006 -0.0108,0.028 -0.0121,0.064 -0.003,0.0651 0.0122,0.10181 0.0327,0.0813 0.0202,-0.0205 0.0226,-0.074 0.005,-0.11866 -0.01,-0.0246 -0.0187,-0.0331 -0.0252,-0.0267 z m -1.93312,4.24045 c -0.004,-0.004 -0.028,0.0157 -0.0771,0.0542 -0.0595,0.0466 -0.10838,0.0951 -0.10838,0.10791 0,0.0509 0.051,0.0184 0.13174,-0.0845 0.0384,-0.049 0.057,-0.0744 0.0537,-0.0776 z m -1.18567,1.17446 c -0.017,0 -0.0814,0.0553 -0.14295,0.12332 -0.0616,0.068 -0.0978,0.12381 -0.0808,0.12381 0.017,0 0.081,-0.0558 0.14248,-0.12381 0.0616,-0.068 0.0983,-0.12332 0.0813,-0.12332 z" /><path
         id="path181-9"
         style="fill:#ffffff;stroke-width:0.061799"
         d="m 237.36457,165.95635 c -0.0107,-0.0109 -0.019,0.0277 -0.0196,0.10418 h 4.7e-4 c -9.1e-4,0.10209 0.0116,0.15117 0.0285,0.10931 0.0165,-0.0419 0.0175,-0.12535 0.002,-0.18547 -0.004,-0.015 -0.007,-0.0244 -0.0112,-0.028 z m -16.73941,0.86799 -0.31347,0.0411 c -0.77974,0.10293 -2.63933,0.42502 -3.77048,0.6531 -6.30829,1.27202 -10.56804,3.19533 -11.56978,5.22383 -0.21952,0.4445 -0.23716,0.52085 -0.23685,1.00907 2.8e-4,0.44736 0.0263,0.58418 0.17145,0.89462 0.19867,0.42506 0.42887,0.7198 0.97824,1.252 0.61118,0.59208 1.14193,0.94176 2.31433,1.52435 1.75709,0.87314 4.82308,1.86107 7.69699,2.48064 l 0.46997,0.10138 5.34108,5.35696 c 6.47941,6.49841 8.70329,8.81122 10.79335,11.22735 1.27881,1.47832 1.18645,1.36292 1.01702,1.27396 -0.0765,-0.0405 -0.13922,-0.0589 -0.13922,-0.0416 0,0.0174 -0.0749,0.003 -0.16678,-0.0317 -0.15703,-0.0597 -0.16126,-0.0566 -0.072,0.0481 0.0522,0.0612 0.32672,0.38935 0.61012,0.72924 0.2834,0.33991 0.54501,0.62849 0.58162,0.64142 0.24964,0.088 0.58363,0.26285 0.64655,0.33869 0.0607,0.073 0.0489,0.10855 -0.0617,0.18593 l -0.13642,0.0953 0.29759,0.39103 c 0.26598,0.3493 0.31811,0.38846 0.48912,0.37092 0.17366,-0.0178 0.21533,0.0166 0.45502,0.37186 0.19714,0.29216 0.27398,0.47491 0.30318,0.72177 0.032,0.27001 0.12276,0.46123 0.49334,1.04084 0.24957,0.39039 0.45557,0.7408 0.45828,0.77877 0.003,0.038 0.0377,-0.0376 0.0776,-0.16819 l 0.0724,-0.23731 0.4326,0.79324 c 1.14422,2.09817 2.03024,4.20162 3.09916,7.35923 0.41489,1.22559 0.42708,1.2519 0.60872,1.27957 0.10196,0.0155 0.72267,0.0918 1.37954,0.17004 l 1.19454,0.14248 0.18826,0.4326 c 1.71601,3.94409 5.62133,12.58134 8.57853,18.97199 0.9594,2.07335 1.78997,3.87368 1.84529,4.00079 0.0553,0.12711 0.12012,0.23109 0.1439,0.23172 0.0757,9e-4 1.16725,-0.40571 1.89901,-0.70776 2.90204,-1.19783 5.22944,-2.66283 6.92571,-4.3591 2.07714,-2.07714 2.95514,-4.33343 2.56239,-6.58561 -0.21035,-1.20627 -0.86089,-2.57049 -1.72197,-3.61118 -0.24121,-0.29151 -0.33478,-0.38856 -3.25519,-3.37152 -4.10546,-4.1934 -6.7412,-7.29246 -8.53788,-10.03888 -0.56818,-0.8685 -1.40711,-2.44468 -1.40711,-2.44468 -0.47264,-1.06438 -0.61079,-1.36704 -0.65636,-1.46175 l -0.18687,-0.59002 c -0.39307,-1.23865 -0.48569,-1.87072 -0.48117,-3.29024 0.005,-1.46774 0.0938,-2.01312 0.55358,-3.37666 0.30238,-0.89676 0.49656,-1.33235 1.12727,-2.52502 2.00815,-3.79744 6.1218,-8.55695 14.10461,-16.31944 0.83274,-0.80976 1.41674,-1.40138 1.29778,-1.31459 -0.11896,0.0868 -0.49258,0.31726 -0.83015,0.512 -1.98787,1.14678 -5.04423,2.15326 -8.80463,2.945 l -0.0121,0.0108 -0.42606,0.0771 c -3.57186,0.72598 -7.74399,1.26307 -12.23642,1.54257 -2.62585,0.1634 -4.45522,0.21681 -7.42277,0.21724 -2.7982,4.1e-4 -3.48358,-0.0251 -3.42057,-0.12707 0.0167,-0.027 -0.0255,-0.0671 -0.0939,-0.0888 -0.0684,-0.0217 -0.12473,-0.0619 -0.12473,-0.0897 0,-0.0278 -0.0593,-0.0661 -0.13175,-0.0851 -0.0835,-0.0219 -0.11876,-0.0673 -0.0967,-0.12473 0.0477,-0.12434 -0.0206,-0.17772 -0.12099,-0.0944 -0.0649,0.0539 -0.0832,0.0406 -0.0832,-0.0621 0,-0.0721 -0.0346,-0.124 -0.0771,-0.11586 -0.0425,0.008 -0.0747,-0.0123 -0.072,-0.0463 0.003,-0.034 -0.0599,-0.1237 -0.13921,-0.19901 -0.0793,-0.0752 -0.14436,-0.11964 -0.14436,-0.0986 0,0.0211 -0.0485,-0.005 -0.10791,-0.0593 -0.0595,-0.0538 -0.13586,-0.10678 -0.16958,-0.11772 -0.0338,-0.0109 -0.0532,-0.0547 -0.0435,-0.0972 0.01,-0.0426 -0.0118,-0.0771 -0.0472,-0.0771 -0.0355,0 -0.0645,0.0277 -0.0645,0.0617 0,0.034 -0.0295,0.0617 -0.0654,0.0617 -0.0362,0 -0.0499,-0.0251 -0.0308,-0.056 0.0191,-0.0309 0.0178,-0.10116 -0.004,-0.15604 -0.0297,-0.0774 -0.0576,-0.0839 -0.12379,-0.0289 -0.0647,0.0538 -0.0855,0.053 -0.0855,-0.003 0,-0.0921 -0.12013,-0.21291 -0.26582,-0.26815 -0.061,-0.0231 -0.15145,-0.13984 -0.20135,-0.25928 -0.0603,-0.14448 -0.13184,-0.21723 -0.21303,-0.21723 -0.16287,0 -0.36786,-0.18189 -0.32654,-0.28963 0.0182,-0.0474 0.009,-0.0811 -0.0211,-0.0738 -0.15663,0.0358 -0.76475,-0.48313 -0.76475,-0.65263 0,-0.0464 -0.0835,-0.1135 -0.18546,-0.14903 -0.10196,-0.0355 -0.185,-0.0951 -0.185,-0.13267 0,-0.0375 -0.0973,-0.10865 -0.21629,-0.15837 -0.11896,-0.0497 -0.2163,-0.11431 -0.2163,-0.14342 0,-0.0885 -0.90587,-0.93433 -1.00066,-0.93433 -0.0359,0 -0.0501,-0.0553 -0.0323,-0.12333 0.0203,-0.0778 0.008,-0.10894 -0.0332,-0.0836 -0.036,0.0222 -0.10154,-0.009 -0.14575,-0.0692 -0.0458,-0.0627 -0.12152,-0.0943 -0.17612,-0.0733 -0.0526,0.0202 -0.0953,0.007 -0.0953,-0.0289 0,-0.0361 -0.0558,-0.13594 -0.1238,-0.22237 -0.068,-0.0861 -0.12333,-0.12421 -0.12333,-0.0836 0,0.0404 -0.0286,0.0564 -0.0631,0.0351 -0.0345,-0.0214 -0.048,-0.0628 -0.0299,-0.092 0.0181,-0.0292 -0.0246,-0.0712 -0.0948,-0.0934 -0.15483,-0.0492 -0.49239,-0.36927 -0.49239,-0.46716 0,-0.0383 -0.0417,-0.0548 -0.093,-0.0351 -0.0547,0.021 -0.12493,-0.0145 -0.16958,-0.086 -0.0419,-0.067 -0.11085,-0.12193 -0.15371,-0.12193 -0.0429,0 -0.078,-0.0432 -0.078,-0.0962 0,-0.0533 -0.0254,-0.0805 -0.0565,-0.0612 -0.0311,0.0193 -0.0845,-0.0418 -0.11866,-0.13547 -0.0342,-0.0937 -0.0645,-0.13632 -0.0673,-0.0944 -0.003,0.0419 -0.13659,-0.0512 -0.29805,-0.20695 -0.16145,-0.1558 -0.35566,-0.30745 -0.43119,-0.33683 -0.0755,-0.0294 -0.15414,-0.12029 -0.17472,-0.20228 -0.0248,-0.099 -0.10349,-0.16872 -0.23358,-0.20696 -0.13289,-0.039 -0.19015,-0.0905 -0.17799,-0.1607 0.011,-0.0633 -0.0129,-0.0918 -0.0617,-0.0733 -0.0439,0.0166 -0.13523,-0.0552 -0.20321,-0.15977 -0.068,-0.10455 -0.20282,-0.23202 -0.29945,-0.2831 -0.0966,-0.0511 -0.16231,-0.10632 -0.14576,-0.12286 0.0389,-0.0389 -0.2527,-0.33169 -0.33028,-0.33169 -0.0324,0 -0.0519,-0.0221 -0.0435,-0.0495 0.008,-0.0274 -0.15919,-0.22894 -0.3728,-0.448 -0.39718,-0.40732 -0.94454,-1.12507 -0.96516,-1.26555 -0.006,-0.043 -0.0426,-0.11572 -0.0804,-0.16164 -0.0377,-0.0459 -0.33191,-0.65382 -0.65356,-1.35057 -0.32165,-0.69678 -0.74608,-1.60925 -0.94367,-2.02796 z m 16.72493,0.21723 c -0.006,0.006 -0.0108,0.028 -0.0121,0.064 l 4.7e-4,4.6e-4 c -0.003,0.0651 0.0117,0.10134 0.0323,0.0808 0.0202,-0.0205 0.0226,-0.0736 0.005,-0.11819 -0.01,-0.0247 -0.0187,-0.0336 -0.0252,-0.0271 z m -5.7919,12.46019 c 0.015,0 0.0276,0.0277 0.0276,0.0617 0,0.034 -0.0295,0.0616 -0.0654,0.0616 -0.0363,0 -0.0486,-0.0277 -0.0276,-0.0616 0.021,-0.034 0.0504,-0.0617 0.0654,-0.0617 z" /></g><path
       style="fill:none;fill-opacity:0.507463;stroke:#ffffff;stroke-width:1.062;stroke-dasharray:none"
       d="m 207.26906,279.2349 c 0,0 12.90168,5.73408 12.90168,32.2542"
       id="path5239" /><path
       style="fill:none;fill-opacity:0.507463;stroke:#ffffff;stroke-width:1.062;stroke-dasharray:none"
       d="m 207.26906,343.73592 c 0,0 12.90168,-5.73408 12.90168,-32.2542"
       id="path5243" /><path
       style="fill:none;fill-opacity:0.507463;stroke:#ffffff;stroke-width:1.062;stroke-dasharray:none"
       d="m 256.56301,281.6241 c 0,0 -12.90168,5.73408 -12.90168,32.2542"
       id="path5245" /><path
       style="fill:none;fill-opacity:0.507463;stroke:#ffffff;stroke-width:1.062;stroke-dasharray:none"
       d="m 256.56301,346.12512 c 0,0 -12.90168,-5.73408 -12.90168,-32.2542"
       id="path5247" /><path
       style="fill:none;fill-opacity:0.507463;stroke:#ffffff;stroke-width:1.062;stroke-dasharray:none"
       d="m 207.03014,278.75706 c 0,0 12.66276,4.53948 22.6974,5.01732 10.03465,0.47784 26.28121,-2.15028 26.28121,-2.15028"
       id="path5249" /><path
       style="fill:none;fill-opacity:0.507463;stroke:#ffffff;stroke-width:1.062;stroke-dasharray:none"
       d="m 207.50798,343.98223 c 0,0 11.46816,4.7784 22.21956,5.01732 10.75141,0.23892 26.52013,-3.10596 26.52013,-3.10596"
       id="path5251" /><path
       style="fill:none;fill-opacity:0.507463;stroke:#ffffff;stroke-width:1.062;stroke-dasharray:none"
       d="m 206.79122,278.0403 c 0,0 15.05196,-2.3892 24.60877,-1.91136 9.5568,0.47784 24.60876,5.49516 24.60876,5.49516"
       id="path5253" /></g></svg>
