<?xml version="1.0" encoding="UTF-8" standalone="no"?>
<!-- Created with Inkscape (http://www.inkscape.org/) -->

<svg
   width="17.590488mm"
   height="17.590488mm"
   viewBox="0 0 17.590488 17.590488"
   version="1.1"
   id="svg5"
   xml:space="preserve"
   inkscape:version="1.2.1 (9c6d41e4, 2022-07-14)"
   sodipodi:docname="imaginary-time.svg"
   xmlns:inkscape="http://www.inkscape.org/namespaces/inkscape"
   xmlns:sodipodi="http://sodipodi.sourceforge.net/DTD/sodipodi-0.dtd"
   xmlns="http://www.w3.org/2000/svg"
   xmlns:svg="http://www.w3.org/2000/svg"><sodipodi:namedview
     id="namedview7"
     pagecolor="#ffffff"
     bordercolor="#000000"
     borderopacity="0.25"
     inkscape:showpageshadow="2"
     inkscape:pageopacity="0.0"
     inkscape:pagecheckerboard="0"
     inkscape:deskcolor="#d1d1d1"
     inkscape:document-units="mm"
     showgrid="false"
     inkscape:zoom="8.8593099"
     inkscape:cx="39.788652"
     inkscape:cy="27.25946"
     inkscape:window-width="1882"
     inkscape:window-height="1035"
     inkscape:window-x="38"
     inkscape:window-y="23"
     inkscape:window-maximized="1"
     inkscape:current-layer="layer1" /><defs
     id="defs2" /><g
     inkscape:label="Layer 1"
     inkscape:groupmode="layer"
     id="layer1"
     transform="translate(-89.886757,304.65079)"><g
       id="g1142"
       transform="translate(-1.760167,2.4327619)"
       style="fill:#ffffff"><path
         d="m 99.097372,-293.77042 0.59531,-0.59531 -2.10343,-2.11667 v -2.65906 h -0.79375 v 2.97656 z m -1.94469,2.73844 q -1.084791,0 -2.050521,-0.41672 -0.96573,-0.41672 -1.68672,-1.13771 -0.720986,-0.72099 -1.137705,-1.68672 -0.416719,-0.96573 -0.416719,-2.05052 0,-1.08479 0.416719,-2.05052 0.416719,-0.96573 1.137705,-1.68672 0.72099,-0.72099 1.68672,-1.13771 0.96573,-0.41672 2.050521,-0.41672 1.08479,0 2.05052,0.41672 0.965728,0.41672 1.686718,1.13771 0.72099,0.72099 1.13771,1.68672 0.41672,0.96573 0.41672,2.05052 0,1.08479 -0.41672,2.05052 -0.41672,0.96573 -1.13771,1.68672 -0.72099,0.72099 -1.686718,1.13771 -0.96573,0.41672 -2.05052,0.41672 z m 0,-5.29167 z m 0,4.49792 q 1.85209,0 3.174998,-1.32292 1.32292,-1.32292 1.32292,-3.175 0,-1.85208 -1.32292,-3.175 -1.322908,-1.32292 -3.174998,-1.32292 -1.852081,0 -3.175001,1.32292 -1.322914,1.32292 -1.322914,3.175 0,1.85208 1.322914,3.175 1.32292,1.32292 3.175001,1.32292 z"
         id="path99"
         style="stroke-width:0.264583;fill:#ffffff" /><path
         id="path132"
         style="stroke-width:0.264583;fill:#ffffff"
         d="m 103.34821,-305.54466 c -0.33514,0.0265 -0.66177,0.0793 -0.97926,0.15865 -0.3175,0.0794 -0.62619,0.18962 -0.92605,0.33073 l 0.39688,0.68781 c 0.23813,-0.10584 0.48528,-0.19173 0.74104,-0.25786 0.25577,-0.0661 0.51163,-0.10791 0.76739,-0.12558 z m 0.79375,0 v 0.79375 c 0.25576,0.0177 0.51163,0.0594 0.7674,0.12558 0.25577,0.0661 0.5024,0.15203 0.74052,0.25786 l 0.39688,-0.68781 c -0.29986,-0.14993 -0.60854,-0.26249 -0.92604,-0.33745 -0.3175,-0.075 -0.64362,-0.12546 -0.97876,-0.15193 z m -3.38687,0.87282 c -0.28222,0.1852 -0.54219,0.39697 -0.780314,0.6351 -0.238126,0.23812 -0.449897,0.49861 -0.635103,0.78083 l 0.687817,0.39688 c 0.14993,-0.22049 0.31991,-0.42355 0.50953,-0.60875 0.18961,-0.18521 0.39446,-0.35288 0.61495,-0.50281 z m 5.97948,0 -0.39687,0.70125 c 0.22048,0.14993 0.42354,0.3176 0.60874,0.50281 0.18521,0.1852 0.35288,0.38826 0.50282,0.60875 l 0.68781,-0.39688 c -0.18521,-0.28222 -0.39467,-0.54271 -0.62839,-0.78083 -0.23371,-0.23813 -0.49189,-0.4499 -0.77411,-0.6351 z m -3.38636,1.89187 v 2.67219 l 2.14303,2.14302 0.55552,-0.55552 -1.9048,-1.90479 v -2.3549 z m -4.391976,0.21188 c -0.141107,0.29985 -0.25135,0.60854 -0.330729,0.92604 -0.0092,0.0366 -0.01842,0.0732 -0.02687,0.11007 a 5.4055657,5.4055657 0 0 1 0.747758,0.2682 c 0.01207,-0.0555 0.02543,-0.1114 0.03979,-0.16692 0.06615,-0.25576 0.152032,-0.50239 0.257865,-0.74052 z m 9.577706,0 -0.70125,0.39687 c 0.10584,0.23813 0.19403,0.48297 0.26459,0.73432 0.0705,0.25136 0.11462,0.50902 0.13229,0.7736 h 0.79375 c -0.0265,-0.33514 -0.077,-0.66125 -0.15193,-0.97875 -0.075,-0.3175 -0.18751,-0.62619 -0.33745,-0.92604 z m -0.30437,2.69854 c -0.0176,0.25576 -0.0594,0.51163 -0.12557,0.76739 -0.0661,0.25577 -0.15204,0.50292 -0.25787,0.74104 l 0.68781,0.39636 c 0.14112,-0.29986 0.25136,-0.60802 0.33073,-0.92552 0.0794,-0.3175 0.13218,-0.64413 0.15865,-0.97927 z m -0.78031,2.19625 c -0.14994,0.22048 -0.31761,0.42302 -0.50282,0.60823 -0.1852,0.1852 -0.38826,0.35288 -0.60874,0.50281 l 0.39687,0.70125 c 0.28222,-0.18521 0.5427,-0.39698 0.78083,-0.6351 0.23812,-0.23813 0.44989,-0.4981 0.6351,-0.78032 z m -1.79938,1.50792 c -0.23812,0.10584 -0.48475,0.19173 -0.74052,0.25786 -0.25577,0.0661 -0.51164,0.10842 -0.7674,0.12609 v 0.79375 c 0.33514,-0.0265 0.66126,-0.0798 0.97876,-0.15916 0.3175,-0.0794 0.62618,-0.18963 0.92604,-0.33073 z m -3.1073,0.24804 a 5.4055657,5.4055657 0 0 1 -0.11782,0.78393 c 0.29999,0.0719 0.60781,0.1208 0.92345,0.14573 v -0.79375 c -0.25576,-0.0177 -0.51162,-0.06 -0.76739,-0.12609 -0.0128,-0.003 -0.0255,-0.006 -0.0382,-0.01 z" /></g></g></svg>
