<?xml version="1.0" encoding="UTF-8" standalone="no"?>
<!-- Created with Inkscape (http://www.inkscape.org/) -->

<svg
   width="121.1068mm"
   height="121.1068mm"
   viewBox="0 0 121.1068 121.1068"
   version="1.1"
   id="svg1980"
   inkscape:version="1.1.1 (3bf5ae0d25, 2021-09-20)"
   sodipodi:docname="limits.svg"
   xmlns:inkscape="http://www.inkscape.org/namespaces/inkscape"
   xmlns:sodipodi="http://sodipodi.sourceforge.net/DTD/sodipodi-0.dtd"
   xmlns="http://www.w3.org/2000/svg"
   xmlns:svg="http://www.w3.org/2000/svg">
  <sodipodi:namedview
     id="namedview1982"
     pagecolor="#ffffff"
     bordercolor="#666666"
     borderopacity="1.0"
     inkscape:pageshadow="2"
     inkscape:pageopacity="0.0"
     inkscape:pagecheckerboard="0"
     inkscape:document-units="mm"
     showgrid="false"
     inkscape:zoom="1.0381216"
     inkscape:cx="187.35763"
     inkscape:cy="194.10058"
     inkscape:window-width="1920"
     inkscape:window-height="1009"
     inkscape:window-x="-8"
     inkscape:window-y="-8"
     inkscape:window-maximized="1"
     inkscape:current-layer="layer1" />
  <defs
     id="defs1977" />
  <g
     inkscape:label="Layer 1"
     inkscape:groupmode="layer"
     id="layer1"
     transform="translate(32.818787,-60.765182)">
    <g
       id="g2617"
       transform="translate(-2.0389855,-0.89202887)">
      <path
         style="color:#000000;fill:#ffffff;stroke-linecap:round;-inkscape-stroke:none"
         d="m 83.896484,67.875 a 3.1686599,3.1686599 0 0 0 -3.666015,2.578125 c 0,0 -4.554224,25.82216 -13.136719,45.023435 -4.291248,9.60064 -9.775464,17.23558 -14.804688,19.34961 -2.514611,1.05702 -4.858217,1.09715 -7.957031,-0.4668 -3.098814,-1.56394 -6.864118,-4.9761 -10.99414,-10.92773 -4.999014,-7.20391 -9.717748,-12.01283 -14.423829,-14.85156 -4.70608,-2.83874 -9.5560585,-3.58736 -13.8710933,-2.40235 -8.6300694,2.37004 -14.4177404,11.05982 -18.9707027,20.9043 -9.105926,19.68895 -13.009766,45.86524 -13.009766,45.86524 a 3.1686599,3.1686599 0 0 0 2.654297,3.60937 3.1686599,3.1686599 0 0 0 3.609375,-2.65625 c 0,0 4.011537,-25.80856 12.4980467,-44.1582 4.2432549,-9.17482 9.671248,-16.01815 14.8964844,-17.45313 2.6126182,-0.71749 5.3509549,-0.43602 8.9199219,1.7168 3.568967,2.15282 7.811724,6.29702 12.490234,13.03906 4.498799,6.48306 8.848065,10.70273 13.345703,12.97266 4.497639,2.26992 9.231315,2.34703 13.267579,0.65039 8.072526,-3.39329 13.585833,-12.42832 18.134765,-22.60547 C 81.976771,97.708207 86.474609,71.541016 86.474609,71.541016 A 3.1686599,3.1686599 0 0 0 83.896484,67.875 Z"
         id="path5253" />
      <g
         id="path5773">
        <path
           style="color:#000000;fill:#ffffff;stroke-width:6.03837;stroke-linecap:round;stroke-linejoin:round;-inkscape-stroke:none"
           d="m 26.644673,115.68814 a 4.5188322,4.5188322 0 0 1 -4.518832,4.51883 4.5188322,4.5188322 0 0 1 -4.518832,-4.51883 4.5188322,4.5188322 0 0 1 4.518832,-4.51883 4.5188322,4.5188322 0 0 1 4.518832,4.51883 z"
           id="path831" />
        <path
           style="color:#000000;fill:#ffffff;stroke-linecap:round;stroke-linejoin:round;-inkscape-stroke:none"
           d="m 22.125,108.15039 c -4.127367,0 -7.537109,3.40974 -7.537109,7.53711 0,4.12737 3.409742,7.53906 7.537109,7.53906 4.127367,0 7.539063,-3.41169 7.539062,-7.53906 0,-4.12737 -3.411695,-7.53711 -7.539062,-7.53711 z m 0,6.03906 c 0.863993,0 1.5,0.63406 1.5,1.49805 0,0.86399 -0.636007,1.5 -1.5,1.5 -0.863993,0 -1.498047,-0.63601 -1.498047,-1.5 0,-0.86399 0.634054,-1.49805 1.498047,-1.49805 z"
           id="path833" />
      </g>
      <g
         id="circle6442">
        <path
           style="color:#000000;fill:#ffffff;stroke-width:6.03837;stroke-linecap:round;stroke-linejoin:round;-inkscape-stroke:none"
           d="m 42.455337,133.23994 a 4.5188322,4.5188322 0 0 1 -4.518833,4.51884 4.5188322,4.5188322 0 0 1 -4.518832,-4.51884 4.5188322,4.5188322 0 0 1 4.518832,-4.51883 4.5188322,4.5188322 0 0 1 4.518833,4.51883 z"
           id="path837" />
        <path
           style="color:#000000;fill:#ffffff;stroke-linecap:round;stroke-linejoin:round;-inkscape-stroke:none"
           d="m 37.935547,125.70117 c -4.127367,0 -7.537109,3.4117 -7.53711,7.53906 0,4.12737 3.409743,7.53711 7.53711,7.53711 4.127367,0 7.539062,-3.40974 7.539062,-7.53711 0,-4.12736 -3.411695,-7.53906 -7.539062,-7.53906 z m 0,6.03906 c 0.863992,0 1.5,0.63601 1.5,1.5 0,0.864 -0.636008,1.5 -1.5,1.5 -0.863993,0 -1.498047,-0.636 -1.498047,-1.5 0,-0.86399 0.634054,-1.5 1.498047,-1.5 z"
           id="path839" />
      </g>
    </g>
  </g>
</svg>
