<?xml version="1.0" encoding="UTF-8" standalone="no"?>
<!-- Created with Inkscape (http://www.inkscape.org/) -->

<svg
   width="49.38678mm"
   height="49.113735mm"
   viewBox="0 0 49.38678 49.113735"
   version="1.1"
   id="svg1"
   inkscape:version="1.4 (e7c3feb1, 2024-10-09)"
   sodipodi:docname="lists.svg"
   xmlns:inkscape="http://www.inkscape.org/namespaces/inkscape"
   xmlns:sodipodi="http://sodipodi.sourceforge.net/DTD/sodipodi-0.dtd"
   xmlns="http://www.w3.org/2000/svg"
   xmlns:svg="http://www.w3.org/2000/svg">
  <sodipodi:namedview
     id="namedview1"
     pagecolor="#ffffff"
     bordercolor="#000000"
     borderopacity="0.25"
     inkscape:showpageshadow="2"
     inkscape:pageopacity="0.0"
     inkscape:pagecheckerboard="0"
     inkscape:deskcolor="#d1d1d1"
     inkscape:document-units="mm"
     showguides="true"
     inkscape:zoom="0.6440867"
     inkscape:cx="88.497403"
     inkscape:cy="57.445682"
     inkscape:window-width="1560"
     inkscape:window-height="847"
     inkscape:window-x="47"
     inkscape:window-y="25"
     inkscape:window-maximized="0"
     inkscape:current-layer="layer1" />
  <defs
     id="defs1" />
  <g
     inkscape:label="Layer 1"
     inkscape:groupmode="layer"
     id="layer1"
     transform="translate(-68.242029,-115.04232)">
    <path
       style="fill:#ffffff;stroke:none;stroke-width:0.816658;stroke-linecap:round;stroke-linejoin:round"
       d="m 76.370969,119.54516 c -1.984136,0 -3.601589,1.61745 -3.601589,3.60159 v 12.38544 c 0,1.98414 1.617455,3.60319 3.601589,3.60319 h 12.387044 c 1.984135,0 3.601589,-1.61905 3.601589,-3.60319 v -12.38544 c 0,-1.98414 -1.617452,-3.60159 -3.601589,-3.60159 z m 0,1.30633 h 12.387044 c 1.28285,0 2.295256,1.01241 2.295256,2.29526 v 12.38544 c 0,1.28286 -1.012404,2.29526 -2.295256,2.29526 H 76.370969 c -1.282851,0 -2.295255,-1.0124 -2.295255,-2.29526 v -12.38544 c 0,-1.28285 1.012406,-2.29526 2.295255,-2.29526 z"
       id="rect1" />
    <path
       id="path4"
       style="fill:#ffffff;stroke:none;stroke-width:1.17961;stroke-linecap:round;stroke-linejoin:round;stroke-dashoffset:3.50999"
       d="m 87.308662,129.33961 a 4.7443139,4.7443139 0 0 1 -4.744314,4.74431 4.7443139,4.7443139 0 0 1 -4.744314,-4.74431 4.7443139,4.7443139 0 0 1 4.744314,-4.74431 4.7443139,4.7443139 0 0 1 4.744314,4.74431 z" />
    <path
       style="fill:#ffffff;stroke:none;stroke-width:0.816658;stroke-linecap:round;stroke-linejoin:round"
       d="m 97.112789,119.54516 c -1.984137,0 -3.601589,1.61745 -3.601589,3.60159 v 12.38544 c 0,1.98414 1.617455,3.60319 3.601589,3.60319 h 12.387051 c 1.98412,0 3.60158,-1.61905 3.60158,-3.60319 v -12.38544 c 0,-1.98414 -1.61746,-3.60159 -3.60158,-3.60159 z m 0,1.30633 h 12.387051 c 1.28283,0 2.29525,1.01241 2.29525,2.29526 v 12.38544 c 0,1.28286 -1.01242,2.29526 -2.29525,2.29526 H 97.112789 c -1.282851,0 -2.295256,-1.0124 -2.295256,-2.29526 v -12.38544 c 0,-1.28285 1.012406,-2.29526 2.295256,-2.29526 z"
       id="rect2" />
    <path
       id="circle4"
       style="fill:#ffffff;stroke:none;stroke-width:1.17961;stroke-linecap:round;stroke-linejoin:round;stroke-dashoffset:3.50999"
       d="m 108.05081,129.33961 a 4.7443139,4.7443139 0 0 1 -4.74432,4.74431 4.7443139,4.7443139 0 0 1 -4.744313,-4.74431 4.7443139,4.7443139 0 0 1 4.744313,-4.74431 4.7443139,4.7443139 0 0 1 4.74432,4.74431 z" />
    <path
       style="fill:#ffffff;stroke:none;stroke-width:0.816658;stroke-linecap:round;stroke-linejoin:bevel;stroke-dasharray:1.30665, 1.82931;stroke-dashoffset:1.43732"
       d="m 76.354362,140.06431 -0.151523,0.003 -0.03348,0.002 -0.14993,0.0112 -0.03193,0.003 -0.148346,0.0191 -0.03193,0.005 -0.07497,0.0127 a 0.65332643,0.65332643 0 0 0 -0.527961,0.75763 0.65332643,0.65332643 0 0 0 0.757646,0.52956 l 0.05741,-0.01 0.114838,-0.0159 0.118032,-0.008 0.135581,-0.003 a 0.65332643,0.65332643 0 0 0 0.636422,-0.66992 0.65332643,0.65332643 0 0 0 -0.669921,-0.63642 z m 1.716264,0 a 0.65332643,0.65332643 0 0 0 -0.653963,0.65237 0.65332643,0.65332643 0 0 0 0.653963,0.65397 h 1.306334 a 0.65332643,0.65332643 0 0 0 0.652363,-0.65397 0.65332643,0.65332643 0 0 0 -0.652363,-0.65237 z m 3.135836,0 a 0.65332643,0.65332643 0 0 0 -0.653963,0.65237 0.65332643,0.65332643 0 0 0 0.653963,0.65397 h 1.306335 a 0.65332643,0.65332643 0 0 0 0.652371,-0.65397 0.65332643,0.65332643 0 0 0 -0.652371,-0.65237 z m 3.135836,0 a 0.65332643,0.65332643 0 0 0 -0.653963,0.65237 0.65332643,0.65332643 0 0 0 0.653963,0.65397 h 1.306335 a 0.65332643,0.65332643 0 0 0 0.652371,-0.65397 0.65332643,0.65332643 0 0 0 -0.652371,-0.65237 z m 3.135845,0 a 0.65332643,0.65332643 0 0 0 -0.653964,0.65237 0.65332643,0.65332643 0 0 0 0.653964,0.65397 h 1.271242 0.01911 a 0.65332643,0.65332643 0 0 0 0.668312,-0.63643 0.65332643,0.65332643 0 0 0 -0.636413,-0.66991 h -0.02711 -0.01592 z m 3.394235,0.68268 a 0.65332643,0.65332643 0 0 0 -0.91077,0.15472 0.65332643,0.65332643 0 0 0 0.154724,0.91076 l 0.01592,0.0127 0.08773,0.067 0.08294,0.0733 0.07979,0.075 0.07497,0.0798 0.07178,0.0829 0.0686,0.0877 0.06378,0.0893 0.05904,0.0925 0.06223,0.10687 a 0.65332643,0.65332643 0 0 0 0.891627,0.24084 0.65332643,0.65332643 0 0 0 0.240849,-0.89162 l -0.0686,-0.11963 -0.01592,-0.0271 -0.07652,-0.11962 -0.01756,-0.0255 -0.08294,-0.11644 -0.01756,-0.0239 -0.08773,-0.11165 -0.02074,-0.0239 -0.09251,-0.10687 -0.02074,-0.0239 -0.0973,-0.10208 -0.02229,-0.0223 -0.102082,-0.0973 -0.02393,-0.0207 -0.106868,-0.0925 -0.02393,-0.0207 -0.111654,-0.0877 -0.02393,-0.0176 z m -16.629836,0.20735 a 0.65332643,0.65332643 0 0 0 -0.457778,0.20257 l -0.07015,0.0733 -0.02229,0.0239 -0.09251,0.10687 -0.01911,0.0239 -0.08773,0.11165 -0.01911,0.0239 -0.08134,0.11644 -0.01756,0.0255 -0.07652,0.11963 -0.01593,0.0271 -0.07178,0.12282 -0.01437,0.0287 -0.06541,0.1276 -0.01437,0.0288 -0.05904,0.1308 -0.01119,0.0287 -0.05267,0.13399 -0.01119,0.0303 -0.02074,0.0622 a 0.65332643,0.65332643 0 0 0 0.409922,0.82782 0.65332643,0.65332643 0 0 0 0.827821,-0.40992 l 0.01593,-0.0479 0.03985,-0.10367 0.04622,-0.10208 0.05104,-0.0989 0.05423,-0.0957 0.0606,-0.0925 0.06378,-0.0893 0.06697,-0.0877 0.07178,-0.0829 0.0606,-0.0622 a 0.65332643,0.65332643 0 0 0 -0.02229,-0.92353 0.65332643,0.65332643 0 0 0 -0.465749,-0.18024 z m 17.464036,2.41648 a 0.65332643,0.65332643 0 0 0 -0.653964,0.65237 v 1.30793 a 0.65332643,0.65332643 0 0 0 0.653964,0.65237 0.65332643,0.65332643 0 0 0 0.652371,-0.65237 v -1.30793 a 0.65332643,0.65332643 0 0 0 -0.652371,-0.65237 z m -18.283888,0.49925 a 0.65332643,0.65332643 0 0 0 -0.653963,0.65396 v 1.30634 a 0.65332643,0.65332643 0 0 0 0.653963,0.65396 0.65332643,0.65332643 0 0 0 0.653964,-0.65396 v -1.30634 a 0.65332643,0.65332643 0 0 0 -0.653964,-0.65396 z m 18.283888,2.63659 a 0.65332643,0.65332643 0 0 0 -0.653964,0.65396 v 1.30634 a 0.65332643,0.65332643 0 0 0 0.653964,0.65237 0.65332643,0.65332643 0 0 0 0.652371,-0.65237 v -1.30634 a 0.65332643,0.65332643 0 0 0 -0.652371,-0.65396 z m -18.283888,0.49925 a 0.65332643,0.65332643 0 0 0 -0.653963,0.65396 v 1.30633 a 0.65332643,0.65332643 0 0 0 0.653963,0.65397 0.65332643,0.65332643 0 0 0 0.653964,-0.65397 v -1.30633 a 0.65332643,0.65332643 0 0 0 -0.653964,-0.65396 z m 18.283888,2.63658 a 0.65332643,0.65332643 0 0 0 -0.653964,0.65398 v 1.30632 a 0.65332643,0.65332643 0 0 0 0.653964,0.65237 0.65332643,0.65332643 0 0 0 0.652371,-0.65237 v -1.30632 a 0.65332643,0.65332643 0 0 0 -0.652371,-0.65398 z m -18.283888,0.49925 a 0.65332643,0.65332643 0 0 0 -0.653963,0.65397 v 1.30633 a 0.65332643,0.65332643 0 0 0 0.653963,0.65396 0.65332643,0.65332643 0 0 0 0.653964,-0.65396 v -1.30633 a 0.65332643,0.65332643 0 0 0 -0.653964,-0.65397 z m 18.283888,2.6366 a 0.65332643,0.65332643 0 0 0 -0.653964,0.65396 v 1.30634 a 0.65332643,0.65332643 0 0 0 0.653964,0.65396 0.65332643,0.65332643 0 0 0 0.652371,-0.65396 v -1.30634 a 0.65332643,0.65332643 0 0 0 -0.652371,-0.65396 z m -18.283888,0.49925 a 0.65332643,0.65332643 0 0 0 -0.653963,0.65396 v 1.30633 a 0.65332643,0.65332643 0 0 0 0.653963,0.65397 0.65332643,0.65332643 0 0 0 0.653964,-0.65397 v -1.30633 a 0.65332643,0.65332643 0 0 0 -0.653964,-0.65396 z m 18.352479,2.64456 a 0.65332643,0.65332643 0 0 0 -0.757647,0.52955 l -0.01119,0.0654 -0.02548,0.11166 -0.03193,0.10846 -0.03512,0.10686 -0.04149,0.10369 -0.04467,0.10208 -0.05104,0.0989 -0.05586,0.0957 -0.05904,0.0925 -0.03193,0.0462 a 0.65332643,0.65332643 0 0 0 0.154724,0.91076 0.65332643,0.65332643 0 0 0 0.910762,-0.15472 l 0.04149,-0.059 0.01756,-0.0255 0.07652,-0.11963 0.01592,-0.0271 0.07015,-0.12281 0.01592,-0.0287 0.06541,-0.1276 0.01274,-0.0288 0.05904,-0.12919 0.01274,-0.0303 0.05259,-0.13398 0.01119,-0.0303 0.04622,-0.13718 0.0096,-0.0303 0.03985,-0.14036 0.0082,-0.0319 0.03193,-0.14356 0.0082,-0.0319 0.01437,-0.0813 a 0.65332643,0.65332643 0 0 0 -0.529545,-0.75763 z m -18.389163,0.50722 a 0.65332643,0.65332643 0 0 0 -0.411522,0.82782 l 0.0082,0.0191 0.01119,0.0303 0.05267,0.13398 0.01119,0.0303 0.05905,0.1292 0.01437,0.0287 0.06541,0.1276 0.01437,0.0288 0.07178,0.12282 0.01592,0.0271 0.07652,0.11963 0.01756,0.0255 0.08134,0.11643 0.01911,0.0255 0.08773,0.11006 0.01911,0.0255 0.09251,0.10687 0.02229,0.0223 0.0973,0.10208 0.02229,0.0223 0.0033,0.003 a 0.65332643,0.65332643 0 0 0 0.923525,-0.0207 0.65332643,0.65332643 0 0 0 -0.02229,-0.92353 l 0.0082,0.007 -0.07652,-0.0798 -0.07178,-0.0829 -0.06697,-0.0861 -0.06378,-0.0909 -0.0606,-0.0925 -0.05423,-0.0957 -0.05104,-0.0989 -0.04622,-0.10208 -0.03985,-0.10368 -0.0016,-0.005 a 0.65332643,0.65332643 0 0 0 -0.827822,-0.40992 z m 16.127396,1.79123 -0.07015,0.0239 -0.110061,0.0303 -0.110053,0.0255 -0.113254,0.0208 -0.116431,0.0144 -0.116439,0.008 -0.127603,0.003 h -0.315818 a 0.65332643,0.65332643 0 0 0 -0.653964,0.65397 0.65332643,0.65332643 0 0 0 0.653964,0.65396 h 0.323788 l 0.01592,-0.002 0.153124,-0.003 0.03193,-0.002 0.14993,-0.0112 0.03348,-0.003 0.148338,-0.0191 0.03193,-0.005 0.145145,-0.0255 0.03193,-0.007 0.143552,-0.0335 0.03193,-0.008 0.138766,-0.0399 0.03193,-0.01 0.08454,-0.0287 a 0.65332643,0.65332643 0 0 0 0.411522,-0.82783 0.65332643,0.65332643 0 0 0 -0.82783,-0.40993 z m -13.508349,0.0973 a 0.65332643,0.65332643 0 0 0 -0.757638,0.52956 0.65332643,0.65332643 0 0 0 0.529545,0.75764 l 0.0303,0.005 0.03193,0.005 0.148346,0.0191 0.03193,0.003 0.14993,0.0112 0.03348,0.002 0.151523,0.003 0.01756,0.002 h 0.823036 a 0.65332643,0.65332643 0 0 0 0.653964,-0.65396 0.65332643,0.65332643 0 0 0 -0.653964,-0.65396 H 76.37993 l -0.127603,-0.003 -0.118032,-0.008 -0.114838,-0.0144 z m 3.019405,0.0288 a 0.65332643,0.65332643 0 0 0 -0.652371,0.65396 0.65332643,0.65332643 0 0 0 0.652371,0.65397 h 1.306326 a 0.65332643,0.65332643 0 0 0 0.653972,-0.65397 0.65332643,0.65332643 0 0 0 -0.653972,-0.65396 z m 3.135836,0 a 0.65332643,0.65332643 0 0 0 -0.652371,0.65396 0.65332643,0.65332643 0 0 0 0.652371,0.65397 h 1.307927 a 0.65332643,0.65332643 0 0 0 0.652371,-0.65397 0.65332643,0.65332643 0 0 0 -0.652371,-0.65396 z m 3.135837,0 a 0.65332643,0.65332643 0 0 0 -0.652371,0.65396 0.65332643,0.65332643 0 0 0 0.652371,0.65397 h 1.307926 a 0.65332643,0.65332643 0 0 0 0.652371,-0.65397 0.65332643,0.65332643 0 0 0 -0.652371,-0.65396 z"
       id="rect3" />
    <path
       id="circle5"
       style="fill:#ffffff;stroke:none;stroke-width:1.17961;stroke-linecap:round;stroke-linejoin:round;stroke-dashoffset:3.50999"
       d="m 87.308654,149.85877 a 4.7443139,4.7443139 0 0 1 -4.74431,4.74431 4.7443139,4.7443139 0 0 1 -4.744318,-4.74431 4.7443139,4.7443139 0 0 1 4.744318,-4.74432 4.7443139,4.7443139 0 0 1 4.74431,4.74432 z" />
    <path
       style="fill:#ffffff;stroke:none;stroke-width:0.816658;stroke-linecap:round;stroke-linejoin:bevel;stroke-dasharray:1.30665, 1.82931;stroke-dashoffset:1.43732"
       d="m 98.811634,140.06309 a 0.65332643,0.65332643 0 0 0 -0.65237,0.65396 0.65332643,0.65332643 0 0 0 0.65237,0.65396 h 1.306336 a 0.65332643,0.65332643 0 0 0 0.65396,-0.65396 0.65332643,0.65332643 0 0 0 -0.65396,-0.65396 z m 3.135836,0 a 0.65332643,0.65332643 0 0 0 -0.65236,0.65396 0.65332643,0.65332643 0 0 0 0.65236,0.65396 h 1.30794 a 0.65332643,0.65332643 0 0 0 0.65236,-0.65396 0.65332643,0.65332643 0 0 0 -0.65236,-0.65396 z m 3.13584,0 a 0.65332643,0.65332643 0 0 0 -0.65237,0.65396 0.65332643,0.65332643 0 0 0 0.65237,0.65396 h 1.30793 a 0.65332643,0.65332643 0 0 0 0.65237,-0.65396 0.65332643,0.65332643 0 0 0 -0.65237,-0.65396 z m 3.13584,0 a 0.65332643,0.65332643 0 0 0 -0.65237,0.65396 0.65332643,0.65332643 0 0 0 0.65237,0.65396 h 1.27284 0.0175 a 0.65332643,0.65332643 0 0 0 0.66992,-0.63642 0.65332643,0.65332643 0 0 0 -0.63643,-0.66991 h -0.0271 l -0.0159,-0.002 z m -11.122179,0.002 -0.151529,0.003 -0.0335,0.002 -0.149933,0.0112 -0.0335,0.003 -0.146743,0.0191 -0.0335,0.005 -0.07337,0.0127 a 0.65332643,0.65332643 0 0 0 -0.527956,0.75764 0.65332643,0.65332643 0 0 0 0.756046,0.52955 l 0.05902,-0.0112 0.114843,-0.0144 0.116437,-0.008 0.137173,-0.003 a 0.65332643,0.65332643 0 0 0 0.636419,-0.66991 0.65332643,0.65332643 0 0 0 -0.669915,-0.63642 z m 14.518009,0.68268 a 0.65332643,0.65332643 0 0 0 -0.91076,0.15471 0.65332643,0.65332643 0 0 0 0.15312,0.91077 l 0.0176,0.0127 0.0861,0.067 0.083,0.0718 0.0798,0.0765 0.0765,0.0798 0.0718,0.0829 0.0686,0.0861 0.0638,0.0909 0.059,0.0925 0.0606,0.10687 a 0.65332643,0.65332643 0 0 0 0.89162,0.24085 0.65332643,0.65332643 0 0 0 0.24245,-0.89162 l -0.0686,-0.11963 -0.0176,-0.0271 -0.0765,-0.11964 -0.0176,-0.0255 -0.0813,-0.11643 -0.0191,-0.0255 -0.0877,-0.11006 -0.0191,-0.0255 -0.0925,-0.10686 -0.0207,-0.0223 -0.0973,-0.10208 -0.0223,-0.0224 -0.10208,-0.0973 -0.0239,-0.0223 -0.10686,-0.0925 -0.0239,-0.0191 -0.11166,-0.0877 -0.0255,-0.0191 z m -16.631431,0.20736 a 0.65332643,0.65332643 0 0 0 -0.45618,0.20097 l -0.07178,0.075 -0.02073,0.0223 -0.09251,0.10687 -0.01914,0.0255 -0.08773,0.11006 -0.01914,0.0255 -0.08135,0.11643 -0.01754,0.0255 -0.07656,0.11963 -0.01754,0.0271 -0.07018,0.12281 -0.01595,0.0287 -0.06381,0.126 -0.01436,0.0303 -0.05902,0.1292 -0.01276,0.0303 -0.05263,0.13398 -0.01116,0.0303 -0.02074,0.0622 a 0.65332643,0.65332643 0 0 0 0.411519,0.82782 0.65332643,0.65332643 0 0 0 0.827823,-0.41151 l 0.01436,-0.0462 0.04147,-0.10368 0.04626,-0.10208 0.04945,-0.0989 0.05583,-0.0957 0.05902,-0.0925 0.06381,-0.0909 0.06858,-0.0861 0.07178,-0.0829 0.06061,-0.0622 a 0.65332643,0.65332643 0 0 0 -0.02233,-0.92352 0.65332643,0.65332643 0 0 0 -0.467346,-0.18024 z m 17.464041,2.41647 a 0.65332643,0.65332643 0 0 0 -0.65237,0.65237 v 1.30634 a 0.65332643,0.65332643 0 0 0 0.65237,0.65396 0.65332643,0.65332643 0 0 0 0.65397,-0.65396 v -1.30634 a 0.65332643,0.65332643 0 0 0 -0.65397,-0.65237 z m -18.282294,0.49925 a 0.65332643,0.65332643 0 0 0 -0.653965,0.65396 v 1.30634 a 0.65332643,0.65332643 0 0 0 0.653965,0.65237 0.65332643,0.65332643 0 0 0 0.652369,-0.65237 v -1.30634 a 0.65332643,0.65332643 0 0 0 -0.652369,-0.65396 z m 18.282294,2.63659 a 0.65332643,0.65332643 0 0 0 -0.65237,0.65237 v 1.30792 a 0.65332643,0.65332643 0 0 0 0.65237,0.65238 0.65332643,0.65332643 0 0 0 0.65397,-0.65238 v -1.30792 a 0.65332643,0.65332643 0 0 0 -0.65397,-0.65237 z m -18.282294,0.49924 a 0.65332643,0.65332643 0 0 0 -0.653965,0.65397 v 1.30633 a 0.65332643,0.65332643 0 0 0 0.653965,0.65237 0.65332643,0.65332643 0 0 0 0.652369,-0.65237 v -1.30633 a 0.65332643,0.65332643 0 0 0 -0.652369,-0.65397 z m 18.282294,2.6366 a 0.65332643,0.65332643 0 0 0 -0.65237,0.65237 v 1.30793 a 0.65332643,0.65332643 0 0 0 0.65237,0.65237 0.65332643,0.65332643 0 0 0 0.65397,-0.65237 v -1.30793 a 0.65332643,0.65332643 0 0 0 -0.65397,-0.65237 z m -18.282294,0.49925 a 0.65332643,0.65332643 0 0 0 -0.653965,0.65396 v 1.30634 a 0.65332643,0.65332643 0 0 0 0.653965,0.65396 0.65332643,0.65332643 0 0 0 0.652369,-0.65396 v -1.30634 a 0.65332643,0.65332643 0 0 0 -0.652369,-0.65396 z m 18.282294,2.63659 a 0.65332643,0.65332643 0 0 0 -0.65237,0.65237 v 1.30793 a 0.65332643,0.65332643 0 0 0 0.65237,0.65237 0.65332643,0.65332643 0 0 0 0.65397,-0.65237 v -1.30793 a 0.65332643,0.65332643 0 0 0 -0.65397,-0.65237 z m -18.282294,0.4992 a 0.65332643,0.65332643 0 0 0 -0.653965,0.65397 v 1.30633 a 0.65332643,0.65332643 0 0 0 0.653965,0.65397 0.65332643,0.65332643 0 0 0 0.652369,-0.65397 v -1.30633 a 0.65332643,0.65332643 0 0 0 -0.652369,-0.65397 z m 18.352474,2.64457 a 0.65332643,0.65332643 0 0 0 -0.75764,0.52796 l -0.0127,0.067 -0.0255,0.11165 -0.0303,0.10846 -0.0351,0.10687 -0.0415,0.10368 -0.0462,0.10208 -0.0494,0.0973 -0.0559,0.0973 -0.059,0.0925 -0.0319,0.0447 a 0.65332643,0.65332643 0 0 0 0.15313,0.91237 0.65332643,0.65332643 0 0 0 0.91076,-0.15473 l 0.0415,-0.059 0.0175,-0.0255 0.0765,-0.11964 0.0175,-0.0271 0.0701,-0.12441 0.0159,-0.0271 0.0638,-0.1276 0.0144,-0.0288 0.059,-0.1308 0.0127,-0.0287 0.0526,-0.13399 0.0112,-0.0303 0.0462,-0.13717 0.01,-0.0319 0.0383,-0.13876 0.01,-0.0319 0.0319,-0.14356 0.007,-0.0319 0.0144,-0.0813 a 0.65332643,0.65332643 0 0 0 -0.52796,-0.75764 z m -18.38916,0.50563 a 0.65332643,0.65332643 0 0 0 -0.411519,0.82782 l 0.0064,0.0207 0.01116,0.0303 0.05263,0.13399 0.01276,0.0288 0.05902,0.13079 0.01436,0.0288 0.06381,0.1276 0.01595,0.0271 0.07018,0.12441 0.01754,0.0271 0.07656,0.11963 0.01754,0.0255 0.08135,0.11644 0.01914,0.0239 0.08773,0.11165 0.01914,0.0239 0.09251,0.10686 0.02074,0.0239 0.0973,0.10209 0.02233,0.0223 0.0048,0.003 a 0.65332643,0.65332643 0 0 0 0.923525,-0.0223 0.65332643,0.65332643 0 0 0 -0.02233,-0.92352 l -0.06858,-0.0718 -0.07178,-0.0829 -0.06858,-0.0877 -0.06381,-0.0893 -0.05902,-0.0925 -0.05583,-0.0973 -0.04945,-0.0973 -0.04625,-0.10209 -0.04147,-0.10367 -0.0016,-0.005 A 0.65332643,0.65332643 0 0 0 94.1286,156.42815 Z m 16.12581,1.79281 -0.0701,0.0224 -0.10846,0.0319 -0.11006,0.0255 -0.11484,0.0191 -0.11485,0.0159 -0.11644,0.008 -0.1276,0.003 h -0.31741 a 0.65332643,0.65332643 0 0 0 -0.65237,0.65396 0.65332643,0.65332643 0 0 0 0.65237,0.65237 h 0.32539 0.0159 l 0.15153,-0.003 0.0335,-0.002 0.14993,-0.0112 0.0335,-0.003 0.14674,-0.0191 0.0335,-0.005 0.14514,-0.0255 0.0319,-0.008 0.14355,-0.0319 0.0303,-0.008 0.14037,-0.0399 0.0303,-0.01 0.0861,-0.0288 a 0.65332643,0.65332643 0 0 0 0.40992,-0.82782 0.65332643,0.65332643 0 0 0 -0.82782,-0.40993 z m -13.506762,0.0973 a 0.65332643,0.65332643 0 0 0 -0.757642,0.52796 0.65332643,0.65332643 0 0 0 0.529552,0.75764 l 0.02871,0.007 0.0335,0.005 0.146743,0.0191 0.0335,0.003 0.149933,0.0112 0.0335,0.002 0.151529,0.003 h 0.01595 0.824633 a 0.65332643,0.65332643 0 0 0 0.653965,-0.65237 0.65332643,0.65332643 0 0 0 -0.653965,-0.65397 h -0.816658 l -0.127602,-0.003 -0.116438,-0.008 -0.114842,-0.0159 z m 3.0194,0.0288 a 0.65332643,0.65332643 0 0 0 -0.653963,0.65396 0.65332643,0.65332643 0 0 0 0.653963,0.65237 h 1.306332 a 0.65332643,0.65332643 0 0 0 0.65397,-0.65237 0.65332643,0.65332643 0 0 0 -0.65397,-0.65396 z m 3.135842,0 a 0.65332643,0.65332643 0 0 0 -0.65397,0.65396 0.65332643,0.65332643 0 0 0 0.65397,0.65237 h 1.30633 a 0.65332643,0.65332643 0 0 0 0.65397,-0.65237 0.65332643,0.65332643 0 0 0 -0.65397,-0.65396 z m 3.13584,0 a 0.65332643,0.65332643 0 0 0 -0.65237,0.65396 0.65332643,0.65332643 0 0 0 0.65237,0.65237 h 1.30633 a 0.65332643,0.65332643 0 0 0 0.65397,-0.65237 0.65332643,0.65332643 0 0 0 -0.65397,-0.65396 z"
       id="rect5" />
    <g
       id="g13"
       transform="matrix(0.81665803,0,0,0.81665803,152.62015,-51.273607)">
      <g
         id="g11">
        <rect
           style="fill:none;stroke:#000000;stroke-width:1.6;stroke-linecap:round;stroke-linejoin:round;stroke-dasharray:none"
           id="rect11"
           width="22.387966"
           height="22.387966"
           x="66.753105"
           y="115.84232"
           ry="3.6104994" />
        <circle
           style="fill:#000000;stroke:none;stroke-width:1.44444;stroke-linecap:round;stroke-linejoin:round;stroke-dasharray:none;stroke-dashoffset:3.50999"
           id="circle11"
           cx="77.94709"
           cy="127.03631"
           r="5.8094254" />
      </g>
      <g
         id="g12"
         transform="translate(1.0253677)">
        <rect
           style="fill:none;stroke:#000000;stroke-width:1.6;stroke-linecap:round;stroke-linejoin:round;stroke-dasharray:none"
           id="rect12"
           width="22.387966"
           height="22.387966"
           x="91.126549"
           y="115.84232"
           ry="3.6104994" />
        <circle
           style="fill:#000000;stroke:none;stroke-width:1.44444;stroke-linecap:round;stroke-linejoin:round;stroke-dasharray:none;stroke-dashoffset:3.50999"
           id="circle12"
           cx="102.32053"
           cy="127.03631"
           r="5.8094254" />
      </g>
    </g>
    <g
       id="g15"
       transform="matrix(0.81665803,0,0,0.81665803,150.75089,-54.357411)">
      <g
         id="g14"
         transform="translate(-46.457971,28.901889)">
        <rect
           style="fill:none;stroke:#000000;stroke-width:1.6;stroke-linecap:round;stroke-linejoin:bevel;stroke-dasharray:1.6, 2.24;stroke-dashoffset:1.76"
           id="rect13"
           width="22.387966"
           height="22.387966"
           x="115.5"
           y="115.84232"
           ry="3.6104994" />
        <circle
           style="fill:#000000;stroke:none;stroke-width:1.44444;stroke-linecap:round;stroke-linejoin:round;stroke-dasharray:none;stroke-dashoffset:3.50999"
           id="circle13"
           cx="126.69398"
           cy="127.03631"
           r="5.8094254" />
      </g>
      <rect
         style="fill:none;stroke:#000000;stroke-width:1.6;stroke-linecap:round;stroke-linejoin:bevel;stroke-dasharray:1.6, 2.24;stroke-dashoffset:1.76"
         id="rect14"
         width="22.387966"
         height="22.387966"
         x="94.440842"
         y="144.74422"
         ry="3.6104994" />
    </g>
  </g>
</svg>
