<?xml version="1.0" encoding="UTF-8" standalone="no"?>
<!-- Created with Inkscape (http://www.inkscape.org/) -->

<svg
   width="141.86453mm"
   height="141.86453mm"
   viewBox="0 0 141.86453 141.86453"
   version="1.1"
   id="svg1509"
   xml:space="preserve"
   inkscape:version="1.2.1 (9c6d41e4, 2022-07-14)"
   sodipodi:docname="logic.svg"
   xmlns:inkscape="http://www.inkscape.org/namespaces/inkscape"
   xmlns:sodipodi="http://sodipodi.sourceforge.net/DTD/sodipodi-0.dtd"
   xmlns="http://www.w3.org/2000/svg"
   xmlns:svg="http://www.w3.org/2000/svg"><sodipodi:namedview
     id="namedview1511"
     pagecolor="#ffffff"
     bordercolor="#000000"
     borderopacity="0.25"
     inkscape:showpageshadow="2"
     inkscape:pageopacity="0.0"
     inkscape:pagecheckerboard="0"
     inkscape:deskcolor="#d1d1d1"
     inkscape:document-units="mm"
     showgrid="false"
     inkscape:zoom="0.41155064"
     inkscape:cx="-30.372933"
     inkscape:cy="321.95309"
     inkscape:window-width="1242"
     inkscape:window-height="755"
     inkscape:window-x="38"
     inkscape:window-y="23"
     inkscape:window-maximized="1"
     inkscape:current-layer="layer1" /><defs
     id="defs1506" /><g
     inkscape:label="Layer 1"
     inkscape:groupmode="layer"
     id="layer1"
     transform="translate(-109.94373,-43.502815)"><path
       id="path1525"
       style="fill:#ffffff;stroke-width:0.414275"
       d="m 206.16016,80.855469 c -1.38919,-0.09425 -2.90593,0.257617 -3.80469,1.40039 -1.02928,1.21351 -0.60798,2.893623 -0.41639,4.317179 0.55986,2.765393 1.58884,5.413609 2.6122,8.034533 1.74477,4.220943 4.30715,8.048329 7.25203,11.522209 1.00147,1.22589 2.0523,2.41389 3.17911,3.52647 -27.44066,0.35021 -54.88577,2.9e-4 -82.32567,0.41549 -1.62261,0.0726 -3.27164,-0.006 -4.87355,0.27396 -1.99271,0.65674 -2.73316,3.09243 -2.28499,4.98518 0.27851,1.63521 1.55918,3.13345 3.27523,3.28826 2.17532,0.31807 4.38622,0.20443 6.57777,0.30131 11.84049,0.20015 23.68339,0.0785 35.52496,0.12018 14.71576,0.003 29.43151,0.007 44.14727,0.0102 -4.45943,4.30409 -8.23089,9.40428 -10.52103,15.19336 -1.29223,3.15503 -2.35192,6.43906 -2.85983,9.81445 -0.0706,1.7742 1.24004,3.49801 3.02539,3.75977 1.98121,0.56972 4.54316,0.0249 5.47851,-1.99024 1.20711,-2.31773 1.45188,-4.99233 2.61095,-7.33163 1.88959,-4.81225 4.6858,-9.42548 8.57074,-12.93925 3.36703,-3.19572 7.3238,-5.60803 11.57608,-7.41368 1.54596,-0.71362 3.29159,-1.85546 3.44403,-3.72009 0.0888,-1.86109 -1.64508,-3.12761 -3.21961,-3.69695 -3.73121,-1.50742 -7.26566,-3.55406 -10.23879,-6.28369 -4.67883,-4.11713 -8.65051,-9.240078 -10.61449,-15.214314 -0.68933,-1.901275 -1.12422,-3.885274 -1.75786,-5.800164 -0.63776,-1.579642 -2.26704,-2.733061 -3.99995,-2.574836 -0.11914,6.51e-4 -0.23828,0.0013 -0.35742,0.002 z" /></g></svg>
