<?xml version="1.0" encoding="UTF-8" standalone="no"?>
<!-- Created with Inkscape (http://www.inkscape.org/) -->

<svg
   width="51.191307mm"
   height="51.191307mm"
   viewBox="0 0 51.191307 51.191307"
   version="1.1"
   id="svg1"
   inkscape:version="1.4 (e7c3feb1, 2024-10-09)"
   sodipodi:docname="priority-queues.svg"
   xmlns:inkscape="http://www.inkscape.org/namespaces/inkscape"
   xmlns:sodipodi="http://sodipodi.sourceforge.net/DTD/sodipodi-0.dtd"
   xmlns="http://www.w3.org/2000/svg"
   xmlns:svg="http://www.w3.org/2000/svg">
  <sodipodi:namedview
     id="namedview1"
     pagecolor="#ffffff"
     bordercolor="#000000"
     borderopacity="0.25"
     inkscape:showpageshadow="2"
     inkscape:pageopacity="0.0"
     inkscape:pagecheckerboard="0"
     inkscape:deskcolor="#d1d1d1"
     inkscape:document-units="mm"
     inkscape:zoom="1.7587595"
     inkscape:cx="96.943329"
     inkscape:cy="40.937945"
     inkscape:window-width="1560"
     inkscape:window-height="847"
     inkscape:window-x="47"
     inkscape:window-y="25"
     inkscape:window-maximized="0"
     inkscape:current-layer="layer1" />
  <defs
     id="defs1" />
  <g
     inkscape:label="Layer 1"
     inkscape:groupmode="layer"
     id="layer1"
     transform="translate(-50.116036,-100.9975)">
    <path
       style="stroke:none;stroke-width:1.09196;stroke-linecap:round;stroke-linejoin:round;fill:#ffffff"
       d="m 76.091388,113.47412 c -2.808987,0 -5.14051,1.07151 -7.110548,2.68724 -1.970039,1.61574 -3.601704,3.76735 -5.114305,5.99513 -3.025204,4.45553 -5.633496,9.17875 -9.006553,10.65303 l 0.04692,-0.017 c -0.39656,0.13132 -0.736526,0.30526 -0.991723,0.58863 -0.255198,0.28339 -0.38021,0.7478 -0.236734,1.13889 0.143477,0.39108 0.452389,0.68313 0.882953,0.9576 0.430565,0.27448 1.001075,0.5305 1.755244,0.77845 3.016676,0.99178 8.973253,1.84924 19.768348,1.95359 a 0.5366197,0.5366197 0 0 0 0.0107,0 c 10.795098,-0.1044 16.751672,-0.96181 19.768347,-1.95359 0.754169,-0.24795 1.32468,-0.50397 1.755244,-0.77845 0.430563,-0.27447 0.739477,-0.56652 0.882956,-0.9576 0.143475,-0.39109 0.01846,-0.8555 -0.236737,-1.13889 -0.255196,-0.28337 -0.595162,-0.45731 -0.991723,-0.58863 l 0.04692,0.017 c -3.373059,-1.47428 -5.981349,-6.1975 -9.006551,-10.65303 -1.512605,-2.22778 -3.14427,-4.37939 -5.114308,-5.99513 -1.970038,-1.61573 -4.299428,-2.68724 -7.108416,-2.68724 z m 0,1.07276 c 2.539829,0 4.596057,0.94158 6.428072,2.44412 1.832015,1.50254 3.416442,3.57311 4.90743,5.76905 2.981974,4.39187 5.532899,9.31493 9.46296,11.03266 a 0.5366197,0.5366197 0 0 0 0.04692,0.017 c 0.284484,0.0942 0.469402,0.21946 0.531052,0.28792 0.06165,0.0685 0.04416,0.009 0.02772,0.0533 -0.01644,0.0448 -0.133492,0.21915 -0.45214,0.42228 -0.318649,0.20314 -0.819467,0.43416 -1.516377,0.66328 -2.786469,0.9161 -8.698624,1.79584 -19.431375,1.90028 -10.741287,-0.10385 -16.654402,-0.98379 -19.442039,-1.90028 -0.69691,-0.22912 -1.197727,-0.46014 -1.516377,-0.66328 -0.318649,-0.20313 -0.435712,-0.3775 -0.45214,-0.42228 -0.01643,-0.0448 -0.03393,0.0152 0.02773,-0.0533 0.06165,-0.0685 0.246567,-0.19371 0.531052,-0.28792 a 0.5366197,0.5366197 0 0 0 0.04692,-0.017 c 3.930058,-1.71773 6.480983,-6.64079 9.462959,-11.03266 1.490987,-2.19594 3.075415,-4.26651 4.907429,-5.76905 1.832015,-1.50254 3.890377,-2.44412 6.430204,-2.44412 z"
       id="path5" />
    <path
       id="path3"
       style="fill:#ffffff;stroke:none;stroke-width:1.01307;stroke-linecap:round;stroke-linejoin:round;stroke-dasharray:none"
       d="m 75.792154,114.85019 c -9.04602,-0.0263 -13.870621,16.86211 -20.469601,19.07866 -2.094902,0.69372 11.099288,4.14261 32.402079,2.35861 -9.136082,-4.52195 -6.439203,-21.76054 -11.932478,-21.43727 z"
       sodipodi:nodetypes="cccc" />
    <g
       id="g7"
       style="stroke:none"
       transform="translate(172.77272,-30.087494)">
      <path
         style="stroke:none;stroke-linecap:round;stroke-linejoin:round"
         d="m 57.275583,134.38567 c 6.688067,-2.92318 9.448224,-17.6662 19.244931,-17.6662 9.796707,0 12.556864,14.74302 19.244934,17.6662 2.494755,0.82612 0.47772,3.81286 -19.244934,4.0035 -19.722651,-0.19064 -21.739687,-3.17738 -19.244931,-4.0035 z"
         id="path6" />
      <path
         style="stroke:none;stroke-linecap:round;stroke-linejoin:round"
         d="m 76.521484,116.22852 c -2.572422,0 -4.707591,0.98127 -6.511718,2.46093 -1.804128,1.47967 -3.298379,3.45008 -4.683594,5.49024 -2.77043,4.0803 -5.159059,8.40574 -8.248047,9.75586 l 0.04297,-0.0156 c -0.363163,0.12026 -0.674498,0.27955 -0.908203,0.53906 -0.233706,0.25952 -0.34819,0.68482 -0.216797,1.04297 0.131393,0.35815 0.41429,0.6256 0.808593,0.87696 0.394304,0.25136 0.916767,0.48582 1.607422,0.71289 2.762621,0.90826 8.217552,1.6935 18.103516,1.78906 a 0.49142715,0.49142715 0 0 0 0.0098,0 c 9.885966,-0.0956 15.340894,-0.8808 18.103515,-1.78906 0.690655,-0.22707 1.213118,-0.46153 1.607422,-0.71289 0.394304,-0.25136 0.677201,-0.51881 0.808594,-0.87696 0.131393,-0.35815 0.01691,-0.78345 -0.216797,-1.04297 -0.233706,-0.25951 -0.54504,-0.4188 -0.908203,-0.53906 l 0.04297,0.0156 c -3.08899,-1.35012 -5.477617,-5.67556 -8.248047,-9.75586 -1.385216,-2.04016 -2.879467,-4.01057 -4.683594,-5.49024 -1.804127,-1.47966 -3.937343,-2.46093 -6.509766,-2.46093 z m 0,0.98242 c 2.325932,0 4.208991,0.86228 5.886719,2.23828 1.677728,1.376 3.12872,3.2722 4.494141,5.2832 2.730842,4.022 5.066935,8.53045 8.666015,10.10352 a 0.49142715,0.49142715 0 0 0 0.04297,0.0156 c 0.260526,0.0863 0.42987,0.20098 0.486328,0.26367 0.05646,0.0627 0.04044,0.008 0.02539,0.0488 -0.01505,0.041 -0.122249,0.2007 -0.414063,0.38672 -0.291813,0.18603 -0.750454,0.3976 -1.388672,0.60742 -2.551802,0.83895 -7.96605,1.6446 -17.794921,1.74024 -9.836687,-0.0951 -15.251817,-0.90094 -17.804688,-1.74024 -0.638218,-0.20982 -1.096858,-0.42139 -1.388672,-0.60742 -0.291813,-0.18602 -0.399017,-0.34571 -0.414062,-0.38672 -0.01505,-0.041 -0.03107,0.0139 0.02539,-0.0488 0.05646,-0.0627 0.225802,-0.1774 0.486328,-0.26367 a 0.49142715,0.49142715 0 0 0 0.04297,-0.0156 c 3.59908,-1.57307 5.935174,-6.08152 8.666016,-10.10352 1.365421,-2.011 2.816413,-3.9072 4.49414,-5.2832 1.677728,-1.376 3.562741,-2.23828 5.888671,-2.23828 z"
         id="path7" />
    </g>
    <path
       id="path8"
       style="fill:#ffffff;stroke:none;stroke-width:0.927748;stroke-linecap:round;stroke-linejoin:round;stroke-dasharray:none"
       d="m 249.02018,87.401216 c -8.2842,-0.0241 -12.70248,15.442034 -18.74572,17.471914 -1.91847,0.63529 10.16454,3.79373 29.67328,2.15997 -8.36667,-4.14112 -5.89692,-19.927934 -10.92756,-19.631884 z"
       sodipodi:nodetypes="cccc" />
    <path
       id="path10"
       style="stroke:none;stroke-width:1.09196;stroke-linecap:round;stroke-linejoin:round;fill:#ffffff"
       d="m 75.825502,112.94462 c -2.735297,0.0401 -5.372075,1.21779 -7.413911,3.00445 -2.659102,2.27399 -4.555867,5.25683 -6.472914,8.14377 -1.48681,2.25367 -2.954612,4.5755 -4.857117,6.49465 -0.827293,0.82107 -1.797955,1.51228 -2.893215,1.92439 -0.760022,0.36346 -1.314,1.27095 -1.030573,2.11197 0.28516,0.90009 1.177831,1.39193 1.986449,1.75163 1.618505,0.70263 3.369579,1.01616 5.098273,1.3159 4.191449,0.67483 8.441506,0.85841 12.678733,0.99637 3.931791,0.11259 7.866967,-0.01 11.792514,-0.23555 3.092535,-0.20263 6.188636,-0.49959 9.226513,-1.13042 1.343696,-0.30781 2.702645,-0.6681 3.907527,-1.35669 0.675927,-0.40162 1.326898,-1.10261 1.237479,-1.94534 -0.06385,-0.73323 -0.618233,-1.3552 -1.301589,-1.59305 -0.651085,-0.27025 -1.265758,-0.62193 -1.808045,-1.07428 -1.702415,-1.3501 -2.947422,-3.16173 -4.183609,-4.92373 -2.212169,-3.23626 -4.182401,-6.68547 -6.952759,-9.49475 -1.831203,-1.84156 -4.121866,-3.34346 -6.713112,-3.80286 -0.757386,-0.14326 -1.530283,-0.20032 -2.300644,-0.18646 z m 0.26675,2.13532 c 1.129281,-0.0109 2.252126,0.21739 3.284237,0.62591 2.069468,0.82467 3.738819,2.38917 5.158574,4.06642 2.636584,3.12102 4.535155,6.80663 7.02954,10.05985 1.341915,1.77492 2.968663,3.4602 4.997931,4.39811 -0.903469,0.48692 -1.890199,0.70412 -2.881818,0.9471 -2.677595,0.60412 -5.432817,0.8532 -8.168834,1.0691 -3.444686,0.24158 -6.903404,0.35985 -10.361642,0.34179 -4.972877,-0.0861 -9.959894,-0.27472 -14.867318,-1.06143 -1.593678,-0.27631 -3.212337,-0.58733 -4.67799,-1.29525 2.137988,-0.97899 3.780828,-2.75148 5.168559,-4.60436 2.699353,-3.57552 4.716711,-7.64407 7.817903,-10.90856 1.554254,-1.63508 3.49104,-3.03317 5.74348,-3.46968 0.587704,-0.11383 1.162158,-0.16748 1.757378,-0.169 z" />
  </g>
</svg>
