<?xml version="1.0" encoding="UTF-8" standalone="no"?>
<!-- Created with Inkscape (http://www.inkscape.org/) -->

<svg
   width="139.4689mm"
   height="139.4689mm"
   viewBox="0 0 139.46891 139.46891"
   version="1.1"
   id="svg1"
   inkscape:version="1.4 (e7c3feb1, 2024-10-09)"
   sodipodi:docname="sandbox.svg"
   xmlns:inkscape="http://www.inkscape.org/namespaces/inkscape"
   xmlns:sodipodi="http://sodipodi.sourceforge.net/DTD/sodipodi-0.dtd"
   xmlns="http://www.w3.org/2000/svg"
   xmlns:svg="http://www.w3.org/2000/svg">
  <sodipodi:namedview
     id="namedview1"
     pagecolor="#ffffff"
     bordercolor="#000000"
     borderopacity="0.25"
     inkscape:showpageshadow="2"
     inkscape:pageopacity="0.0"
     inkscape:pagecheckerboard="0"
     inkscape:deskcolor="#d1d1d1"
     inkscape:document-units="mm"
     inkscape:zoom="0.64690349"
     inkscape:cx="292.93396"
     inkscape:cy="327.71504"
     inkscape:window-width="1104"
     inkscape:window-height="687"
     inkscape:window-x="46"
     inkscape:window-y="30"
     inkscape:window-maximized="0"
     inkscape:current-layer="layer1" />
  <defs
     id="defs1" />
  <g
     inkscape:label="Layer 1"
     inkscape:groupmode="layer"
     id="layer1"
     transform="translate(-53.352337,-91.017418)">
    <path
       style="fill:#ffffff;stroke-width:0.899999;stroke-linecap:round;stroke-linejoin:round"
       d="m 71.745653,154.44748 41.846457,-39.6568 8.19772,52.1569 -53.93687,-47.04774 74.20446,17.27382 -68.36542,45.00926 37.95376,13.13784 c 0,0 49.63183,-7.05551 52.06477,-6.81221 2.43293,0.24329 -46.71232,18.49029 -46.71232,18.49029 l 35.27753,-38.44034 -79.800207,23.59945 58.147107,-74.93434 -39.90011,-2.18964 7.037609,35.05213 -28.204124,-10.96609 70.311765,58.63368 -45.982437,9.48844 57.903817,-61.7965 4.37927,-17.51712 -23.35615,16.54395 31.14154,8.02868 -88.37576,-11.72381 65.2629,77.16971 -68.122132,-54.741 97.560622,-18.73358 -10.21832,32.35801 -14.5976,-61.30991 -14.5976,6.32562 37.95376,9.48844 -12.89455,73.96117 -70.798354,-12.16467 38.926934,22.38298 56.17351,-14.75012 -14.57036,-28.55608 -98.290494,-0.72989 99.750254,-51.33488 1.45976,39.65681 -10.21832,-37.71047 -12.65125,96.58745 -70.068474,-11.67808 78.097154,-90.74841 -93.42463,71.52824 5.352452,-53.03794 110.734148,46.8196 -19.79093,28.82593 29.25617,-53.34948 -72.71018,-54.20996 z"
       id="path1"
       sodipodi:nodetypes="cccccccscccccccccccccccccccccccccccccccccccccccc" />
  </g>
</svg>
