<?xml version="1.0" encoding="UTF-8" standalone="no"?>
<!-- Created with Inkscape (http://www.inkscape.org/) -->

<svg
   width="52.769939mm"
   height="52.674953mm"
   viewBox="0 0 52.769939 52.674953"
   version="1.1"
   id="svg5"
   xml:space="preserve"
   inkscape:version="1.2.1 (9c6d41e4, 2022-07-14)"
   sodipodi:docname="set-theory.svg"
   xmlns:inkscape="http://www.inkscape.org/namespaces/inkscape"
   xmlns:sodipodi="http://sodipodi.sourceforge.net/DTD/sodipodi-0.dtd"
   xmlns="http://www.w3.org/2000/svg"
   xmlns:svg="http://www.w3.org/2000/svg"><sodipodi:namedview
     id="namedview7"
     pagecolor="#ffffff"
     bordercolor="#000000"
     borderopacity="0.25"
     inkscape:showpageshadow="2"
     inkscape:pageopacity="0.0"
     inkscape:pagecheckerboard="0"
     inkscape:deskcolor="#d1d1d1"
     inkscape:document-units="mm"
     showgrid="false"
     inkscape:zoom="0.98338994"
     inkscape:cx="89.994819"
     inkscape:cy="142.87313"
     inkscape:window-width="1242"
     inkscape:window-height="755"
     inkscape:window-x="38"
     inkscape:window-y="23"
     inkscape:window-maximized="1"
     inkscape:current-layer="layer1" /><defs
     id="defs2" /><g
     inkscape:label="Layer 1"
     inkscape:groupmode="layer"
     id="layer1"
     transform="translate(-79.989823,-72.669771)"><path
       style="fill:#ffffff;stroke-width:0.209997"
       d="m 86.031579,119.70842 c -0.243881,-0.0985 -0.48965,-0.35595 -0.546153,-0.57201 -0.0565,-0.21607 -0.02817,-0.59442 0.06297,-0.84079 0.134228,-0.36285 0.397504,-0.47246 1.386143,-0.57713 0.671243,-0.071 1.61945,-0.17848 2.107126,-0.23872 0.619836,-0.0766 1.014831,-0.27244 1.312486,-0.65084 0.419852,-0.53376 0.425799,-0.78123 0.425799,-17.719135 0,-10.734529 -0.07735,-17.381269 -0.206232,-17.720239 -0.113426,-0.298332 -0.443118,-0.632492 -0.732648,-0.74257 -0.28953,-0.110085 -1.16534,-0.255965 -1.946243,-0.324183 -0.780905,-0.06826 -1.621158,-0.164429 -1.867229,-0.213789 -0.246071,-0.04937 -0.50272,-0.301293 -0.570332,-0.559838 -0.06938,-0.265323 0.0163,-0.682575 0.196717,-0.957923 l 0.319646,-0.487842 12.535546,0.07627 c 12.092745,0.07357 12.593425,0.09236 14.174075,0.531749 0.90119,0.250505 2.20327,0.683575 2.89351,0.962375 0.69024,0.2788 1.78182,0.823916 2.42573,1.211372 0.6439,0.387457 1.68752,1.260605 2.31913,1.940338 0.63161,0.679734 1.3779,1.754837 1.6584,2.389116 0.28051,0.634278 0.60792,1.766043 0.72756,2.515026 0.11965,0.748983 0.15904,1.941854 0.0875,2.650827 -0.0715,0.708973 -0.26232,1.770195 -0.42397,2.358281 -0.16166,0.588077 -0.53756,1.505157 -0.83535,2.037946 -0.29778,0.532781 -1.06036,1.442987 -1.69463,2.022676 -0.63427,0.57968 -1.75967,1.343402 -2.50088,1.697151 -0.74121,0.353748 -2.15381,0.851575 -3.13911,1.106287 -0.98529,0.254711 -1.79145,0.565635 -1.79145,0.690945 0,0.1253 1.24064,2.06331 2.75698,4.30669 1.51633,2.24338 3.55628,5.15379 4.5332,6.46757 0.97693,1.31378 2.58065,3.22316 3.56384,4.24306 1.30483,1.35355 2.05136,1.95324 2.76421,2.22046 0.53713,0.20136 1.04603,0.46546 1.13089,0.58689 0.0849,0.12143 0.15573,0.42805 0.15749,0.68137 0.002,0.25332 -0.2068,0.60769 -0.4635,0.78748 -0.39314,0.27538 -1.31181,0.3264 -5.82743,0.3237 -2.94839,-0.002 -5.49647,-0.0891 -5.6624,-0.19412 -0.16594,-0.10499 -3.00533,-4.37963 -6.30977,-9.49918 l -6.00806,-9.30827 -1.09266,-0.0635 -1.09265,-0.0635 v 7.33465 c 0,4.03405 0.0603,7.63634 0.13409,8.0051 0.0754,0.37687 0.36077,0.81899 0.65174,1.00964 0.32374,0.21212 1.22432,0.39015 2.40403,0.47525 1.28012,0.0923 1.947,0.23184 2.07501,0.43409 0.10375,0.16391 0.19008,0.50389 0.19185,0.75551 0.002,0.25163 -0.14529,0.606 -0.32678,0.7875 -0.29077,0.29076 -1.47036,0.32841 -9.92239,0.31668 -5.275814,-0.007 -9.79193,-0.0939 -10.035811,-0.19248 z m 12.825038,-2.57668 c -0.08922,-0.25987 -0.1982,-6.80392 -0.242173,-14.54233 -0.04398,-7.738414 0.006,-15.723571 0.111059,-17.744794 0.105058,-2.021232 0.261287,-3.887582 0.347174,-4.147452 l 0.156161,-0.472501 h -3.281937 -3.281937 l 0.15998,0.892491 c 0.08799,0.490874 0.159981,8.452404 0.159981,17.692301 0,9.239885 -0.06907,17.248675 -0.153481,17.797285 l -0.153481,0.99749 h 3.170439 3.170439 z m 21.666373,-1.36498 c -0.85592,-1.01062 -2.38046,-2.9703 -3.38788,-4.35486 -1.0074,-1.38456 -3.09043,-4.42065 -4.62894,-6.74688 l -2.79729,-4.22952 -1.95705,0.1067 c -1.07638,0.0587 -1.98486,0.13014 -2.01886,0.15878 -0.034,0.0286 2.37573,3.84103 5.35494,8.47198 l 5.41674,8.41991 2.78727,0.006 2.78728,0.006 -1.55621,-1.83748 z M 107.36976,98.062011 c 0.63524,-0.13711 1.48574,-0.417998 1.88998,-0.624183 0.40424,-0.206193 0.9898,-0.643422 1.30123,-0.971613 0.31143,-0.3282 0.78392,-1.069222 1.04999,-1.64672 0.44973,-0.976154 0.48374,-1.323172 0.48374,-4.934937 0,-3.26824 -0.0632,-4.068305 -0.39825,-5.039942 -0.21903,-0.635247 -0.66657,-1.54808 -0.99453,-2.028534 -0.32796,-0.480445 -0.90474,-1.062705 -1.28173,-1.293908 -0.37699,-0.231202 -1.23625,-0.579347 -1.90947,-0.773651 -0.87582,-0.252782 -1.79147,-0.332731 -3.21885,-0.28107 l -1.99485,0.07223 -0.7186,0.784406 -0.71859,0.784405 v 8.224702 8.224694 l 2.67747,-0.123276 c 1.47261,-0.06778 3.19722,-0.235465 3.83246,-0.372583 z m 8.01482,-1.20876 c 0.76995,-0.294666 1.83321,-0.850211 2.36282,-1.23454 0.5296,-0.38433 1.24873,-1.09335 1.59807,-1.575589 0.34933,-0.482248 0.78549,-1.393945 0.96923,-2.02601 0.22975,-0.79031 0.30609,-1.679824 0.24446,-2.848361 -0.066,-1.252422 -0.23561,-2.017739 -0.64488,-2.91084 -0.32115,-0.700814 -1.00853,-1.653173 -1.63037,-2.258863 -0.67399,-0.656486 -1.71573,-1.351109 -2.79217,-1.861786 -0.94438,-0.448023 -2.03999,-0.883625 -2.43468,-0.968003 l -0.71764,-0.153412 0.42567,0.72145 c 0.23411,0.396798 0.61945,1.281899 0.8563,1.966887 0.23685,0.68498 0.54625,2.037176 0.68756,3.004877 0.15402,1.054665 0.20967,2.694964 0.13894,4.094949 -0.0649,1.284527 -0.27902,2.949747 -0.47584,3.700492 -0.19681,0.750738 -0.53436,1.715589 -0.75011,2.144111 -0.21573,0.428514 -0.39224,0.83194 -0.39224,0.896491 0,0.06453 0.25987,0.05588 0.57749,-0.01937 0.31762,-0.07524 1.20745,-0.377822 1.97739,-0.672487 z"
       id="path179" /></g></svg>
