<?xml version="1.0" encoding="UTF-8" standalone="no"?>
<!-- Created with Inkscape (http://www.inkscape.org/) -->

<svg
   width="124.71117mm"
   height="124.71117mm"
   viewBox="0 0 124.71117 124.71117"
   version="1.1"
   id="svg2710"
   sodipodi:docname="variables.svg"
   inkscape:version="1.1.1 (3bf5ae0d25, 2021-09-20)"
   xmlns:inkscape="http://www.inkscape.org/namespaces/inkscape"
   xmlns:sodipodi="http://sodipodi.sourceforge.net/DTD/sodipodi-0.dtd"
   xmlns="http://www.w3.org/2000/svg"
   xmlns:svg="http://www.w3.org/2000/svg">
  <sodipodi:namedview
     id="namedview2712"
     pagecolor="#ffffff"
     bordercolor="#666666"
     borderopacity="1.0"
     inkscape:pageshadow="2"
     inkscape:pageopacity="0.0"
     inkscape:pagecheckerboard="0"
     inkscape:document-units="mm"
     showgrid="false"
     inkscape:zoom="1.4681257"
     inkscape:cx="189.35708"
     inkscape:cy="225.11696"
     inkscape:window-width="1920"
     inkscape:window-height="1009"
     inkscape:window-x="-8"
     inkscape:window-y="-8"
     inkscape:window-maximized="1"
     inkscape:current-layer="layer1" />
  <defs
     id="defs2707" />
  <g
     inkscape:label="Layer 1"
     inkscape:groupmode="layer"
     id="layer1"
     transform="translate(-63.436893,-8.2900524)">
    <path
       style="color:#000000;fill:#ffffff;stroke:none;stroke-width:1.01315;stroke-linecap:round;stroke-linejoin:round;-inkscape-stroke:none"
       d="m 106.0224,36.343145 a 3.4446986,3.4446986 0 0 0 -2.4359,1.009189 L 72.180938,68.757899 a 3.445043,3.445043 0 0 0 0,4.87181 L 103.5865,105.0333 a 3.4446986,3.4446986 0 0 0 4.87182,0 3.4446986,3.4446986 0 0 0 0,-4.86983 L 79.488654,71.193804 108.45832,42.224143 a 3.4446986,3.4446986 0 0 0 0,-4.871809 3.4446986,3.4446986 0 0 0 -2.43592,-1.009189 z"
       id="path3043" />
    <path
       style="color:#000000;fill:#ffffff;stroke:none;stroke-width:1.01315;stroke-linecap:round;stroke-linejoin:round;-inkscape-stroke:none"
       d="m 145.56284,35.248867 a 3.4446986,3.4446986 0 0 0 -2.43592,1.00721 3.4446986,3.4446986 0 0 0 0,4.87181 l 28.96967,28.96966 -28.96967,28.969664 a 3.4446986,3.4446986 0 0 0 0,4.871809 3.4446986,3.4446986 0 0 0 4.87182,0 l 31.40358,-31.405567 a 3.445043,3.445043 0 0 0 0,-4.87181 L 147.99874,36.256077 a 3.4446986,3.4446986 0 0 0 -2.4359,-1.00721 z"
       id="path3200" />
    <g
       id="g3671"
       transform="matrix(1.3465519,0,0,1.3465519,-39.989824,-24.482374)"
       style="fill:#ffffff;stroke:none">
      <circle
         style="fill:#ffffff;stroke:none;stroke-width:6.8;stroke-linecap:round;stroke-linejoin:round"
         id="path3574"
         cx="110.30929"
         cy="70.645638"
         r="3.0584085" />
      <circle
         style="fill:#ffffff;stroke:none;stroke-width:6.8;stroke-linecap:round;stroke-linejoin:round"
         id="circle3656"
         cx="123.11637"
         cy="70.645638"
         r="3.0584085" />
      <circle
         style="fill:#ffffff;stroke:none;stroke-width:6.8;stroke-linecap:round;stroke-linejoin:round"
         id="circle3658"
         cx="135.92346"
         cy="70.645638"
         r="3.0584085" />
    </g>
  </g>
</svg>
