<?xml version="1.0" encoding="UTF-8" standalone="no"?>
<!-- Created with Inkscape (http://www.inkscape.org/) -->

<svg
   width="517.6969mm"
   height="516.61847mm"
   viewBox="0 0 517.6969 516.61847"
   version="1.1"
   id="svg5"
   inkscape:version="1.1.1 (3bf5ae0d25, 2021-09-20)"
   sodipodi:docname="iris-spiral-optimized.svg"
   inkscape:export-filename="C:\Users\ayden\bitmap.png"
   inkscape:export-xdpi="329.5"
   inkscape:export-ydpi="329.5"
   xmlns:inkscape="http://www.inkscape.org/namespaces/inkscape"
   xmlns:sodipodi="http://sodipodi.sourceforge.net/DTD/sodipodi-0.dtd"
   xmlns="http://www.w3.org/2000/svg"
   xmlns:svg="http://www.w3.org/2000/svg">
  <sodipodi:namedview
     id="namedview7"
     pagecolor="#ffffff"
     bordercolor="#666666"
     borderopacity="1.0"
     inkscape:pageshadow="2"
     inkscape:pageopacity="0.0"
     inkscape:pagecheckerboard="0"
     inkscape:document-units="mm"
     showgrid="false"
     inkscape:zoom="0.1767767"
     inkscape:cx="2463.56"
     inkscape:cy="1153.9983"
     inkscape:window-width="1920"
     inkscape:window-height="974"
     inkscape:window-x="-11"
     inkscape:window-y="-11"
     inkscape:window-maximized="1"
     inkscape:current-layer="layer1"
     showguides="false"
     inkscape:lockguides="false"
     inkscape:snap-global="false" />
  <defs
     id="defs2" />
  <g
     inkscape:label="Layer 1"
     inkscape:groupmode="layer"
     id="layer1"
     transform="translate(268.41939,1040.3789)">
    <g
       id="g13741"
       transform="rotate(111.10369,-9.5709428,-782.06971)">
      <g
         id="g13421"
         transform="matrix(1.792755,-2.4257491,2.4257491,1.792755,228.80034,610.43757)"
         inkscape:transform-center-x="-94.890729"
         inkscape:transform-center-y="-11.374765">
        <path
           style="fill:#f9844a;fill-opacity:1;stroke:#ffffff;stroke-width:0.407644;stroke-linecap:round"
           d="m 364.14088,-288.70666 a 63.57221,63.57221 0 0 1 -11.38821,7.35964 l 9.47498,19.96429 a 85.667935,85.667935 0 0 0 16.22931,-10.496 z"
           id="path13397" />
        <path
           style="fill:#f8961e;fill-opacity:1;stroke:#ffffff;stroke-width:0.407644;stroke-linecap:round"
           d="m 337.07937,-275.91443 3.9857,21.74028 a 85.667935,85.667935 0 0 0 18.38468,-5.93167 l -9.47795,-19.97056 a 63.57221,63.57221 0 0 1 -12.89243,4.16195 z"
           id="path13399" />
        <path
           style="fill:#f9c74f;fill-opacity:1;stroke:#ffffff;stroke-width:0.407644;stroke-linecap:round"
           d="m 375.56019,-300.74837 a 63.57221,63.57221 0 0 1 -9.09406,10.05597 l 14.32212,16.83529 a 85.667935,85.667935 0 0 0 12.95811,-14.33977 z"
           id="path13401" />
        <path
           style="fill:#f3722c;fill-opacity:1;stroke:#ffffff;stroke-width:0.407644;stroke-linecap:round"
           d="m 320.54226,-274.68045 -1.77699,22.03295 a 85.667935,85.667935 0 0 0 19.29257,-0.97523 l -3.98518,-21.74053 a 63.57221,63.57221 0 0 1 -13.5304,0.68281 z"
           id="path13403" />
        <path
           style="fill:#90be6d;fill-opacity:1;stroke:#ffffff;stroke-width:0.407644;stroke-linecap:round"
           d="m 383.47278,-315.33445 a 63.57221,63.57221 0 0 1 -6.17947,12.06749 l 18.19457,12.55707 a 85.667935,85.667935 0 0 0 8.80461,-17.20644 z"
           id="path13405" />
        <path
           style="fill:#f94144;fill-opacity:1;stroke:#ffffff;stroke-width:0.407644;stroke-linecap:round"
           d="m 304.24926,-277.76851 -7.41814,20.8197 a 85.667935,85.667935 0 0 0 18.88671,4.05593 l 1.77673,-22.03347 a 63.57221,63.57221 0 0 1 -13.2453,-2.84216 z"
           id="path13407" />
        <path
           style="fill:#43aa8b;fill-opacity:1;stroke:#ffffff;stroke-width:0.407644;stroke-linecap:round"
           d="m 387.34266,-331.4715 a 63.57221,63.57221 0 0 1 -2.84395,13.25638 l 20.81996,7.41865 a 85.667935,85.667935 0 0 0 4.05898,-18.89774 z"
           id="path13409" />
        <path
           style="fill:#4d908e;fill-opacity:1;stroke:#ffffff;stroke-width:0.407644;stroke-linecap:round"
           d="m 386.90566,-348.05913 a 63.57221,63.57221 0 0 1 0.68594,13.54107 l 22.02626,1.77632 a 85.667935,85.667935 0 0 0 -0.97139,-19.30334 z"
           id="path13411" />
        <path
           style="fill:#577590;fill-opacity:1;stroke:#ffffff;stroke-width:0.407644;stroke-linecap:round"
           d="m 382.19144,-363.9701 a 63.57221,63.57221 0 0 1 4.16847,12.9021 l 21.73198,-3.98431 a 85.667935,85.667935 0 0 0 -5.93614,-18.39278 z"
           id="path13413" />
        <path
           style="fill:#5060a1;fill-opacity:1;stroke:#ffffff;stroke-width:0.407644;stroke-linecap:round"
           d="m 390.34913,-392.43593 -16.82793,14.31608 a 63.57221,63.57221 0 0 1 7.35938,11.3877 l 19.96431,-9.47498 a 85.667935,85.667935 0 0 0 -10.49576,-16.2288 z"
           id="path13415" />
        <path
           style="fill:#b63cb6;fill-opacity:1;stroke:#ffffff;stroke-width:0.407644;stroke-linecap:round"
           d="m 374.03072,-407.72578 -12.55178,18.18693 a 63.57221,63.57221 0 0 1 10.05649,9.09382 l 16.8353,-14.32212 a 85.667935,85.667935 0 0 0 -14.34001,-12.95863 z"
           id="path13417" />
        <path
           style="fill:#ea3c87;fill-opacity:1;stroke:#ffffff;stroke-width:0.407644;stroke-linecap:round"
           d="m 293.9773,-257.921 7.41843,-20.82047 a 63.57221,63.57221 0 0 1 -12.06855,-6.17897 l -12.55655,18.1943 a 85.667935,85.667935 0 0 0 17.20667,8.80514 z"
           id="path13419" />
      </g>
      <g
         id="g13713"
         transform="matrix(-1.7927549,2.4257492,-2.4257492,-1.7927549,-247.94229,-2174.577)"
         inkscape:transform-center-x="94.890673"
         inkscape:transform-center-y="11.374848">
        <path
           style="fill:#f9844a;fill-opacity:1;stroke:#ffffff;stroke-width:0.407644;stroke-linecap:round"
           d="m 364.14088,-288.70666 a 63.57221,63.57221 0 0 1 -11.38821,7.35964 l 9.47498,19.96429 a 85.667935,85.667935 0 0 0 16.22931,-10.496 z"
           id="path13689" />
        <path
           style="fill:#f8961e;fill-opacity:1;stroke:#ffffff;stroke-width:0.407644;stroke-linecap:round"
           d="m 337.07937,-275.91443 3.9857,21.74028 a 85.667935,85.667935 0 0 0 18.38468,-5.93167 l -9.47795,-19.97056 a 63.57221,63.57221 0 0 1 -12.89243,4.16195 z"
           id="path13691" />
        <path
           style="fill:#f9c74f;fill-opacity:1;stroke:#ffffff;stroke-width:0.407644;stroke-linecap:round"
           d="m 375.56019,-300.74837 a 63.57221,63.57221 0 0 1 -9.09406,10.05597 l 14.32212,16.83529 a 85.667935,85.667935 0 0 0 12.95811,-14.33977 z"
           id="path13693" />
        <path
           style="fill:#f3722c;fill-opacity:1;stroke:#ffffff;stroke-width:0.407644;stroke-linecap:round"
           d="m 320.54226,-274.68045 -1.77699,22.03295 a 85.667935,85.667935 0 0 0 19.29257,-0.97523 l -3.98518,-21.74053 a 63.57221,63.57221 0 0 1 -13.5304,0.68281 z"
           id="path13695" />
        <path
           style="fill:#90be6d;fill-opacity:1;stroke:#ffffff;stroke-width:0.407644;stroke-linecap:round"
           d="m 383.47278,-315.33445 a 63.57221,63.57221 0 0 1 -6.17947,12.06749 l 18.19457,12.55707 a 85.667935,85.667935 0 0 0 8.80461,-17.20644 z"
           id="path13697" />
        <path
           style="fill:#f94144;fill-opacity:1;stroke:#ffffff;stroke-width:0.407644;stroke-linecap:round"
           d="m 304.24926,-277.76851 -7.41814,20.8197 a 85.667935,85.667935 0 0 0 18.88671,4.05593 l 1.77673,-22.03347 a 63.57221,63.57221 0 0 1 -13.2453,-2.84216 z"
           id="path13699" />
        <path
           style="fill:#43aa8b;fill-opacity:1;stroke:#ffffff;stroke-width:0.407644;stroke-linecap:round"
           d="m 387.34266,-331.4715 a 63.57221,63.57221 0 0 1 -2.84395,13.25638 l 20.81996,7.41865 a 85.667935,85.667935 0 0 0 4.05898,-18.89774 z"
           id="path13701" />
        <path
           style="fill:#4d908e;fill-opacity:1;stroke:#ffffff;stroke-width:0.407644;stroke-linecap:round"
           d="m 386.90566,-348.05913 a 63.57221,63.57221 0 0 1 0.68594,13.54107 l 22.02626,1.77632 a 85.667935,85.667935 0 0 0 -0.97139,-19.30334 z"
           id="path13703" />
        <path
           style="fill:#577590;fill-opacity:1;stroke:#ffffff;stroke-width:0.407644;stroke-linecap:round"
           d="m 382.19144,-363.9701 a 63.57221,63.57221 0 0 1 4.16847,12.9021 l 21.73198,-3.98431 a 85.667935,85.667935 0 0 0 -5.93614,-18.39278 z"
           id="path13705" />
        <path
           style="fill:#5060a1;fill-opacity:1;stroke:#ffffff;stroke-width:0.407644;stroke-linecap:round"
           d="m 390.34913,-392.43593 -16.82793,14.31608 a 63.57221,63.57221 0 0 1 7.35938,11.3877 l 19.96431,-9.47498 a 85.667935,85.667935 0 0 0 -10.49576,-16.2288 z"
           id="path13707" />
        <path
           style="fill:#b63cb6;fill-opacity:1;stroke:#ffffff;stroke-width:0.407644;stroke-linecap:round"
           d="m 374.03072,-407.72578 -12.55178,18.18693 a 63.57221,63.57221 0 0 1 10.05649,9.09382 l 16.8353,-14.32212 a 85.667935,85.667935 0 0 0 -14.34001,-12.95863 z"
           id="path13709" />
        <path
           style="fill:#ea3c87;fill-opacity:1;stroke:#ffffff;stroke-width:0.407644;stroke-linecap:round"
           d="m 293.9773,-257.921 7.41843,-20.82047 a 63.57221,63.57221 0 0 1 -12.06855,-6.17897 l -12.55655,18.1943 a 85.667935,85.667935 0 0 0 17.20667,8.80514 z"
           id="path13711" />
      </g>
    </g>
  </g>
</svg>
